<?xml version="1.0" encoding="us-ascii" standalone="no"?><svg xmlns="http://www.w3.org/2000/svg" xmlns:xlink="http://www.w3.org/1999/xlink" contentStyleType="text/css" height="560px" preserveAspectRatio="none" style="width:465px;height:560px;background:#FFFFFF;" version="1.1" viewBox="0 0 465 560" width="465px" zoomAndPan="magnify"><defs/><g><line style="stroke:#181818;stroke-width:0.5;stroke-dasharray:5.0,5.0;" x1="36" x2="36" y1="81.2969" y2="480.0234"/><line style="stroke:#181818;stroke-width:0.5;stroke-dasharray:5.0,5.0;" x1="112" x2="112" y1="81.2969" y2="480.0234"/><line style="stroke:#181818;stroke-width:0.5;stroke-dasharray:5.0,5.0;" x1="181" x2="181" y1="81.2969" y2="480.0234"/><line style="stroke:#181818;stroke-width:0.5;stroke-dasharray:5.0,5.0;" x1="268" x2="268" y1="81.2969" y2="480.0234"/><line style="stroke:#181818;stroke-width:0.5;stroke-dasharray:5.0,5.0;" x1="337" x2="337" y1="81.2969" y2="480.0234"/><line style="stroke:#181818;stroke-width:0.5;stroke-dasharray:5.0,5.0;" x1="395" x2="395" y1="81.2969" y2="480.0234"/><line style="stroke:#181818;stroke-width:0.5;stroke-dasharray:5.0,5.0;" x1="446" x2="446" y1="81.2969" y2="480.0234"/><text fill="#000000" font-family="sans-serif" font-size="14" lengthAdjust="spacing" textLength="56" x="5" y="77.9951">&#36710;&#36947;&#19994;&#21153;</text><ellipse cx="36" cy="49" fill="#0000FF" rx="12" ry="12" style="stroke:#181818;stroke-width:0.5;"/><polygon fill="#181818" points="32,37,38,32,36,37,38,42,32,37" style="stroke:#181818;stroke-width:1.0;"/><text fill="#000000" font-family="sans-serif" font-size="14" lengthAdjust="spacing" textLength="56" x="5" y="492.0186">&#36710;&#36947;&#19994;&#21153;</text><ellipse cx="36" cy="511.3203" fill="#0000FF" rx="12" ry="12" style="stroke:#181818;stroke-width:0.5;"/><polygon fill="#181818" points="32,499.3203,38,494.3203,36,499.3203,38,504.3203,32,499.3203" style="stroke:#181818;stroke-width:1.0;"/><text fill="#000000" font-family="sans-serif" font-size="14" lengthAdjust="spacing" textLength="28" x="95" y="77.9951">&#29992;&#25143;</text><ellipse cx="112" cy="13.5" fill="#FFFF00" rx="8" ry="8" style="stroke:#181818;stroke-width:0.5;"/><path d="M112,21.5 L112,48.5 M99,29.5 L125,29.5 M112,48.5 L99,63.5 M112,48.5 L125,63.5 " fill="none" style="stroke:#181818;stroke-width:0.5;"/><text fill="#000000" font-family="sans-serif" font-size="14" lengthAdjust="spacing" textLength="28" x="95" y="492.0186">&#29992;&#25143;</text><ellipse cx="112" cy="503.8203" fill="#FFFF00" rx="8" ry="8" style="stroke:#181818;stroke-width:0.5;"/><path d="M112,511.8203 L112,538.8203 M99,519.8203 L125,519.8203 M112,538.8203 L99,553.8203 M112,538.8203 L125,553.8203 " fill="none" style="stroke:#181818;stroke-width:0.5;"/><rect fill="#D3D3D3" height="30.2969" rx="2.5" ry="2.5" style="stroke:#181818;stroke-width:0.5;" width="84" x="139" y="50"/><text fill="#000000" font-family="sans-serif" font-size="14" lengthAdjust="spacing" textLength="70" x="146" y="69.9951">&#40657;&#21517;&#21333;&#26381;&#21153;</text><rect fill="#D3D3D3" height="30.2969" rx="2.5" ry="2.5" style="stroke:#181818;stroke-width:0.5;" width="84" x="139" y="479.0234"/><text fill="#000000" font-family="sans-serif" font-size="14" lengthAdjust="spacing" textLength="70" x="146" y="499.0186">&#40657;&#21517;&#21333;&#26381;&#21153;</text><rect fill="#FFC0CB" height="30.2969" rx="2.5" ry="2.5" style="stroke:#181818;stroke-width:0.5;" width="70" x="233" y="50"/><text fill="#000000" font-family="sans-serif" font-size="14" lengthAdjust="spacing" textLength="56" x="240" y="69.9951">&#35745;&#36153;&#26381;&#21153;</text><rect fill="#FFC0CB" height="30.2969" rx="2.5" ry="2.5" style="stroke:#181818;stroke-width:0.5;" width="70" x="233" y="479.0234"/><text fill="#000000" font-family="sans-serif" font-size="14" lengthAdjust="spacing" textLength="56" x="240" y="499.0186">&#35745;&#36153;&#26381;&#21153;</text><text fill="#000000" font-family="sans-serif" font-size="14" lengthAdjust="spacing" textLength="42" x="313" y="77.9951">&#25171;&#21360;&#26426;</text><ellipse cx="337" cy="49" fill="#008000" rx="12" ry="12" style="stroke:#181818;stroke-width:0.5;"/><line style="stroke:#181818;stroke-width:0.5;" x1="325" x2="349" y1="63" y2="63"/><text fill="#000000" font-family="sans-serif" font-size="14" lengthAdjust="spacing" textLength="42" x="313" y="492.0186">&#25171;&#21360;&#26426;</text><ellipse cx="337" cy="511.3203" fill="#008000" rx="12" ry="12" style="stroke:#181818;stroke-width:0.5;"/><line style="stroke:#181818;stroke-width:0.5;" x1="325" x2="349" y1="525.3203" y2="525.3203"/><text fill="#000000" font-family="sans-serif" font-size="14" lengthAdjust="spacing" textLength="42" x="371" y="77.9951">&#35835;&#21345;&#22120;</text><ellipse cx="395" cy="49" fill="#FFA500" rx="12" ry="12" style="stroke:#181818;stroke-width:0.5;"/><line style="stroke:#181818;stroke-width:0.5;" x1="383" x2="407" y1="63" y2="63"/><text fill="#000000" font-family="sans-serif" font-size="14" lengthAdjust="spacing" textLength="42" x="371" y="492.0186">&#35835;&#21345;&#22120;</text><ellipse cx="395" cy="511.3203" fill="#FFA500" rx="12" ry="12" style="stroke:#181818;stroke-width:0.5;"/><line style="stroke:#181818;stroke-width:0.5;" x1="383" x2="407" y1="525.3203" y2="525.3203"/><text fill="#000000" font-family="sans-serif" font-size="14" lengthAdjust="spacing" textLength="28" x="429" y="77.9951">&#26639;&#26438;</text><ellipse cx="446" cy="49" fill="#FF0000" rx="12" ry="12" style="stroke:#181818;stroke-width:0.5;"/><line style="stroke:#181818;stroke-width:0.5;" x1="434" x2="458" y1="63" y2="63"/><text fill="#000000" font-family="sans-serif" font-size="14" lengthAdjust="spacing" textLength="28" x="429" y="492.0186">&#26639;&#26438;</text><ellipse cx="446" cy="511.3203" fill="#FF0000" rx="12" ry="12" style="stroke:#181818;stroke-width:0.5;"/><line style="stroke:#181818;stroke-width:0.5;" x1="434" x2="458" y1="525.3203" y2="525.3203"/><polygon fill="#181818" points="100,108.4297,110,112.4297,100,116.4297,104,112.4297" style="stroke:#181818;stroke-width:1.0;"/><line style="stroke:#181818;stroke-width:1.0;" x1="36" x2="106" y1="112.4297" y2="112.4297"/><text fill="#000000" font-family="sans-serif" font-size="13" lengthAdjust="spacing" textLength="52" x="43" y="107.3638">&#30830;&#35748;&#36710;&#29260;</text><polygon fill="#181818" points="47,137.5625,37,141.5625,47,145.5625,43,141.5625" style="stroke:#181818;stroke-width:1.0;"/><line style="stroke:#181818;stroke-width:1.0;stroke-dasharray:2.0,2.0;" x1="41" x2="111" y1="141.5625" y2="141.5625"/><text fill="#000000" font-family="sans-serif" font-size="13" lengthAdjust="spacing" textLength="26" x="53" y="136.4966">&#30830;&#35748;</text><polygon fill="#181818" points="169,166.6953,179,170.6953,169,174.6953,173,170.6953" style="stroke:#181818;stroke-width:1.0;"/><line style="stroke:#181818;stroke-width:1.0;" x1="36" x2="175" y1="170.6953" y2="170.6953"/><text fill="#000000" font-family="sans-serif" font-size="13" lengthAdjust="spacing" textLength="78" x="43" y="165.6294">&#26159;&#21542;&#22312;&#40657;&#21517;&#21333;</text><polygon fill="#181818" points="47,195.8281,37,199.8281,47,203.8281,43,199.8281" style="stroke:#181818;stroke-width:1.0;"/><line style="stroke:#181818;stroke-width:1.0;stroke-dasharray:2.0,2.0;" x1="41" x2="180" y1="199.8281" y2="199.8281"/><text fill="#000000" font-family="sans-serif" font-size="13" lengthAdjust="spacing" textLength="13" x="53" y="194.7622">&#21542;</text><polygon fill="#181818" points="383,224.9609,393,228.9609,383,232.9609,387,228.9609" style="stroke:#181818;stroke-width:1.0;"/><line style="stroke:#181818;stroke-width:1.0;" x1="36" x2="389" y1="228.9609" y2="228.9609"/><text fill="#000000" font-family="sans-serif" font-size="13" lengthAdjust="spacing" textLength="26" x="43" y="223.895">&#35835;&#21345;</text><polygon fill="#181818" points="47,254.0938,37,258.0938,47,262.0938,43,258.0938" style="stroke:#181818;stroke-width:1.0;"/><line style="stroke:#181818;stroke-width:1.0;stroke-dasharray:2.0,2.0;" x1="41" x2="394" y1="258.0938" y2="258.0938"/><text fill="#000000" font-family="sans-serif" font-size="13" lengthAdjust="spacing" textLength="52" x="53" y="253.0278">&#21345;&#20869;&#25968;&#25454;</text><polygon fill="#181818" points="256,283.2266,266,287.2266,256,291.2266,260,287.2266" style="stroke:#181818;stroke-width:1.0;"/><line style="stroke:#181818;stroke-width:1.0;" x1="36" x2="262" y1="287.2266" y2="287.2266"/><text fill="#000000" font-family="sans-serif" font-size="13" lengthAdjust="spacing" textLength="52" x="43" y="282.1606">&#36153;&#29992;&#35745;&#31639;</text><polygon fill="#181818" points="47,312.3594,37,316.3594,47,320.3594,43,316.3594" style="stroke:#181818;stroke-width:1.0;"/><line style="stroke:#181818;stroke-width:1.0;stroke-dasharray:2.0,2.0;" x1="41" x2="267" y1="316.3594" y2="316.3594"/><text fill="#000000" font-family="sans-serif" font-size="13" lengthAdjust="spacing" textLength="52" x="53" y="311.2935">&#35745;&#31639;&#32467;&#26524;</text><polygon fill="#181818" points="100,341.4922,110,345.4922,100,349.4922,104,345.4922" style="stroke:#181818;stroke-width:1.0;"/><line style="stroke:#181818;stroke-width:1.0;" x1="36" x2="106" y1="345.4922" y2="345.4922"/><text fill="#000000" font-family="sans-serif" font-size="13" lengthAdjust="spacing" textLength="52" x="43" y="340.4263">&#25353;&#20215;&#25910;&#36153;</text><polygon fill="#181818" points="47,370.625,37,374.625,47,378.625,43,374.625" style="stroke:#181818;stroke-width:1.0;"/><line style="stroke:#181818;stroke-width:1.0;" x1="41" x2="111" y1="374.625" y2="374.625"/><text fill="#000000" font-family="sans-serif" font-size="13" lengthAdjust="spacing" textLength="52" x="53" y="369.5591">&#25910;&#36153;&#23436;&#25104;</text><polygon fill="#181818" points="325,399.7578,335,403.7578,325,407.7578,329,403.7578" style="stroke:#181818;stroke-width:1.0;"/><line style="stroke:#181818;stroke-width:1.0;" x1="36" x2="331" y1="403.7578" y2="403.7578"/><text fill="#000000" font-family="sans-serif" font-size="13" lengthAdjust="spacing" textLength="52" x="43" y="398.6919">&#25171;&#21360;&#21457;&#31080;</text><polygon fill="#181818" points="434,428.8906,444,432.8906,434,436.8906,438,432.8906" style="stroke:#181818;stroke-width:1.0;"/><line style="stroke:#181818;stroke-width:1.0;" x1="36" x2="440" y1="432.8906" y2="432.8906"/><text fill="#000000" font-family="sans-serif" font-size="13" lengthAdjust="spacing" textLength="26" x="43" y="427.8247">&#25260;&#26438;</text><polygon fill="#181818" points="47,458.0234,37,462.0234,47,466.0234,43,462.0234" style="stroke:#181818;stroke-width:1.0;"/><line style="stroke:#181818;stroke-width:1.0;stroke-dasharray:2.0,2.0;" x1="41" x2="445" y1="462.0234" y2="462.0234"/><text fill="#000000" font-family="sans-serif" font-size="13" lengthAdjust="spacing" textLength="26" x="53" y="456.9575">&#23436;&#25104;</text><!--SRC=[RL9DJnDH5Ds_Nt6JRc1HKa09piAee2Ir3SJoiPvEd-CBmvl9wvkQkdCXeQGJIWeHJJKsKTA56LWG4Hl_3VEc_0llq9csqxYSTpxcddElONCfR0i6Vy_lthTlVtyE3hkWLw7CtXLiancGALik9ReXRG7XIKyTN4UmMwK2CdLgMVPRukX2CeCvEfTmrpyEMbxWdQgEbrXPIAunWqB6OkORkIPeFQKP-Dt1rSs4W8q43kExX7B9P1rKenrubwhp9-8uWd4PpM0AIdb26Lpq0wyRVEf5547rIiHO5petwSZbsv7wid__6w7lHhYW5K96UREFX-4q2Bl-mF-EnOID9edUieWbl0HE2ST9DL1d5q7hFEZqHesGCJpfX5mafdpYoRKu3uc_frMOTF-3EhrKdfyEC2uGBQvkS6rOSUX_96DWock8X_ss-jhvRncgsRZjNwkJN-XtNqQ4JJeCeS1lgeDMsY5PbHPlC3Ww3d_qqWCFLu6Cmv-u7H9_JmUEpPzGZXlRiF1sjee5g55HPJQ7-Rc5tCBYtDBC3gt0KqV0_2F8vRJSelPm6LPAcn31isHcRQC0LTiLs4A5LQLWPLUYVfRazPeEhroyapsgmRf3UNxrPV80ptcD2PlluHsH_7PnJ5Xwa7t699ImMPnvkqXMwMlTjIGg3Bl2kAd1rkQBx38fu1swkedUUB4hDlgAEcAbVm00]--></g></svg>