<?xml version="1.0" encoding="us-ascii" standalone="no"?><svg xmlns="http://www.w3.org/2000/svg" xmlns:xlink="http://www.w3.org/1999/xlink" contentStyleType="text/css" height="571px" preserveAspectRatio="none" style="width:1227px;height:571px;background:#FFFFFF;" version="1.1" viewBox="0 0 1227 571" width="1227px" zoomAndPan="magnify"><defs/><g><g id="&#40657;&#21517;&#21333;&#26381;&#21153;"><rect fill="#808080" height="50" rx="12.5" ry="12.5" style="stroke:#181818;stroke-width:0.5;" width="90" x="252" y="7"/><line style="stroke:#181818;stroke-width:0.5;" x1="252" x2="342" y1="33.2969" y2="33.2969"/><text fill="#000000" font-family="sans-serif" font-size="14" lengthAdjust="spacing" textLength="70" x="262" y="24.9951">&#40657;&#21517;&#21333;&#26381;&#21153;</text></g><g id="&#35745;&#36153;&#26381;&#21153;"><rect fill="#FFC0CB" height="50" rx="12.5" ry="12.5" style="stroke:#181818;stroke-width:0.5;" width="76" x="649" y="7"/><line style="stroke:#181818;stroke-width:0.5;" x1="649" x2="725" y1="33.2969" y2="33.2969"/><text fill="#000000" font-family="sans-serif" font-size="14" lengthAdjust="spacing" textLength="56" x="659" y="24.9951">&#35745;&#36153;&#26381;&#21153;</text></g><g id="&#36710;&#36742;&#20449;&#24687;&#30028;&#38754;"><rect fill="#FFFF00" height="50" rx="12.5" ry="12.5" style="stroke:#181818;stroke-width:0.5;" width="104" x="47" y="7"/><line style="stroke:#181818;stroke-width:0.5;" x1="47" x2="151" y1="33.2969" y2="33.2969"/><text fill="#000000" font-family="sans-serif" font-size="14" lengthAdjust="spacing" textLength="84" x="57" y="24.9951">&#36710;&#36742;&#20449;&#24687;&#30028;&#38754;</text></g><g id="&#25910;&#36153;&#20449;&#24687;&#30028;&#38754;"><rect fill="#FFFF00" height="50" rx="12.5" ry="12.5" style="stroke:#181818;stroke-width:0.5;" width="104" x="807" y="7"/><line style="stroke:#181818;stroke-width:0.5;" x1="807" x2="911" y1="33.2969" y2="33.2969"/><text fill="#000000" font-family="sans-serif" font-size="14" lengthAdjust="spacing" textLength="84" x="817" y="24.9951">&#25910;&#36153;&#20449;&#24687;&#30028;&#38754;</text></g><g id="CPC&#35835;&#21345;&#30028;&#38754;"><rect fill="#FFFF00" height="50" rx="12.5" ry="12.5" style="stroke:#181818;stroke-width:0.5;" width="105" x="387.5" y="7"/><line style="stroke:#181818;stroke-width:0.5;" x1="387.5" x2="492.5" y1="33.2969" y2="33.2969"/><text fill="#000000" font-family="sans-serif" font-size="14" lengthAdjust="spacing" textLength="85" x="397.5" y="24.9951">CPC&#35835;&#21345;&#30028;&#38754;</text></g><g id="&#30830;&#35748;&#23436;&#25104;&#30028;&#38754;"><rect fill="#FFFF00" height="50" rx="12.5" ry="12.5" style="stroke:#181818;stroke-width:0.5;" width="104" x="1105" y="388"/><line style="stroke:#181818;stroke-width:0.5;" x1="1105" x2="1209" y1="414.2969" y2="414.2969"/><text fill="#000000" font-family="sans-serif" font-size="14" lengthAdjust="spacing" textLength="84" x="1115" y="405.9951">&#30830;&#35748;&#23436;&#25104;&#30028;&#38754;</text></g><g id="&#26639;&#26438;&#26381;&#21153;"><rect fill="#FF0000" height="50" rx="12.5" ry="12.5" style="stroke:#181818;stroke-width:0.5;" width="76" x="1125" y="261"/><line style="stroke:#181818;stroke-width:0.5;" x1="1125" x2="1201" y1="287.2969" y2="287.2969"/><text fill="#000000" font-family="sans-serif" font-size="14" lengthAdjust="spacing" textLength="56" x="1135" y="278.9951">&#26639;&#26438;&#26381;&#21153;</text></g><g id="&#25171;&#21360;&#26381;&#21153;"><rect fill="#90EE90" height="50" rx="12.5" ry="12.5" style="stroke:#181818;stroke-width:0.5;" width="76" x="1144" y="134"/><line style="stroke:#181818;stroke-width:0.5;" x1="1144" x2="1220" y1="160.2969" y2="160.2969"/><text fill="#000000" font-family="sans-serif" font-size="14" lengthAdjust="spacing" textLength="56" x="1154" y="151.9951">&#25171;&#21360;&#26381;&#21153;</text></g><g id="&#35835;&#21345;&#26381;&#21153;"><rect fill="#FFA500" height="50" rx="12.5" ry="12.5" style="stroke:#181818;stroke-width:0.5;" width="76" x="528" y="7"/><line style="stroke:#181818;stroke-width:0.5;" x1="528" x2="604" y1="33.2969" y2="33.2969"/><text fill="#000000" font-family="sans-serif" font-size="14" lengthAdjust="spacing" textLength="56" x="538" y="24.9951">&#35835;&#21345;&#26381;&#21153;</text></g><g id="&#29305;&#24773;&#22788;&#29702;"><rect fill="#8A2BE2" height="50" rx="12.5" ry="12.5" style="stroke:#181818;stroke-width:0.5;" width="76" x="634" y="515"/><line style="stroke:#181818;stroke-width:0.5;" x1="634" x2="710" y1="541.2969" y2="541.2969"/><text fill="#000000" font-family="sans-serif" font-size="14" lengthAdjust="spacing" textLength="56" x="644" y="532.9951">&#29305;&#24773;&#22788;&#29702;</text></g><g id="&#36710;&#36742;&#36827;&#20837;"><rect fill="#F1F1F1" height="50" rx="12.5" ry="12.5" style="stroke:#808080;stroke-width:1.0;stroke-dasharray:1.0,3.0;" width="76" x="61" y="134"/><line style="stroke:#808080;stroke-width:1.0;stroke-dasharray:1.0,3.0;" x1="61" x2="137" y1="160.2969" y2="160.2969"/><text fill="#000000" font-family="sans-serif" font-size="14" lengthAdjust="spacing" textLength="56" x="71" y="151.9951">&#36710;&#36742;&#36827;&#20837;</text></g><g id="&#34892;&#31243;&#33719;&#21462;"><rect fill="#F1F1F1" height="50" rx="12.5" ry="12.5" style="stroke:#FFA500;stroke-width:1.0;stroke-dasharray:1.0,3.0;" width="76" x="649" y="134"/><line style="stroke:#FFA500;stroke-width:1.0;stroke-dasharray:1.0,3.0;" x1="649" x2="725" y1="160.2969" y2="160.2969"/><text fill="#000000" font-family="sans-serif" font-size="14" lengthAdjust="spacing" textLength="56" x="659" y="151.9951">&#34892;&#31243;&#33719;&#21462;</text></g><g id="&#36710;&#36742;&#21487;&#36890;&#34892;"><rect fill="#F1F1F1" height="50" rx="12.5" ry="12.5" style="stroke:#808080;stroke-width:1.0;stroke-dasharray:1.0,3.0;" width="90" x="470" y="134"/><line style="stroke:#808080;stroke-width:1.0;stroke-dasharray:1.0,3.0;" x1="470" x2="560" y1="160.2969" y2="160.2969"/><text fill="#000000" font-family="sans-serif" font-size="14" lengthAdjust="spacing" textLength="70" x="480" y="151.9951">&#36710;&#36742;&#21487;&#36890;&#34892;</text></g><g id="&#36710;&#36742;&#34987;&#35782;&#21035;"><rect fill="#F1F1F1" height="50" rx="12.5" ry="12.5" style="stroke:#ADD8E6;stroke-width:1.0;stroke-dasharray:1.0,3.0;" width="90" x="252" y="134"/><line style="stroke:#ADD8E6;stroke-width:1.0;stroke-dasharray:1.0,3.0;" x1="252" x2="342" y1="160.2969" y2="160.2969"/><text fill="#000000" font-family="sans-serif" font-size="14" lengthAdjust="spacing" textLength="70" x="262" y="151.9951">&#36710;&#36742;&#34987;&#35782;&#21035;</text></g><g id="&#36153;&#29992;&#24050;&#35745;&#31639;"><rect fill="#F1F1F1" height="50" rx="12.5" ry="12.5" style="stroke:#FFC0CB;stroke-width:1.0;stroke-dasharray:1.0,3.0;" width="90" x="814" y="134"/><line style="stroke:#FFC0CB;stroke-width:1.0;stroke-dasharray:1.0,3.0;" x1="814" x2="904" y1="160.2969" y2="160.2969"/><text fill="#000000" font-family="sans-serif" font-size="14" lengthAdjust="spacing" textLength="70" x="824" y="151.9951">&#36153;&#29992;&#24050;&#35745;&#31639;</text></g><g id="&#24050;&#25910;&#36153;"><rect fill="#F1F1F1" height="50" rx="12.5" ry="12.5" style="stroke:#ADD8E6;stroke-width:1.0;stroke-dasharray:1.0,3.0;" width="62" x="993" y="134"/><line style="stroke:#ADD8E6;stroke-width:1.0;stroke-dasharray:1.0,3.0;" x1="993" x2="1055" y1="160.2969" y2="160.2969"/><text fill="#000000" font-family="sans-serif" font-size="14" lengthAdjust="spacing" textLength="42" x="1003" y="151.9951">&#24050;&#25910;&#36153;</text></g><g id="&#24050;&#25171;&#21457;&#31080;"><rect fill="#F1F1F1" height="50" rx="12.5" ry="12.5" style="stroke:#90EE90;stroke-width:1.0;stroke-dasharray:1.0,3.0;" width="76" x="986" y="261"/><line style="stroke:#90EE90;stroke-width:1.0;stroke-dasharray:1.0,3.0;" x1="986" x2="1062" y1="287.2969" y2="287.2969"/><text fill="#000000" font-family="sans-serif" font-size="14" lengthAdjust="spacing" textLength="56" x="996" y="278.9951">&#24050;&#25171;&#21457;&#31080;</text></g><g id="&#24050;&#25918;&#34892;"><rect fill="#F1F1F1" height="50" rx="12.5" ry="12.5" style="stroke:#FF0000;stroke-width:1.0;stroke-dasharray:1.0,3.0;" width="62" x="1008" y="388"/><line style="stroke:#FF0000;stroke-width:1.0;stroke-dasharray:1.0,3.0;" x1="1008" x2="1070" y1="414.2969" y2="414.2969"/><text fill="#000000" font-family="sans-serif" font-size="14" lengthAdjust="spacing" textLength="42" x="1018" y="405.9951">&#24050;&#25918;&#34892;</text></g><g id="&#36710;&#36742;&#39542;&#20986;"><rect fill="#F1F1F1" height="50" rx="12.5" ry="12.5" style="stroke:#ADD8E6;stroke-width:1.0;stroke-dasharray:1.0,3.0;" width="76" x="982" y="515"/><line style="stroke:#ADD8E6;stroke-width:1.0;stroke-dasharray:1.0,3.0;" x1="982" x2="1058" y1="541.2969" y2="541.2969"/><text fill="#000000" font-family="sans-serif" font-size="14" lengthAdjust="spacing" textLength="56" x="992" y="532.9951">&#36710;&#36742;&#39542;&#20986;</text></g><g id="&#36710;&#36742;&#24322;&#24120;"><rect fill="#F1F1F1" height="50" rx="12.5" ry="12.5" style="stroke:#F08080;stroke-width:1.0;stroke-dasharray:1.0,3.0;" width="76" x="634" y="388"/><line style="stroke:#F08080;stroke-width:1.0;stroke-dasharray:1.0,3.0;" x1="634" x2="710" y1="414.2969" y2="414.2969"/><text fill="#000000" font-family="sans-serif" font-size="14" lengthAdjust="spacing" textLength="56" x="644" y="405.9951">&#36710;&#36742;&#24322;&#24120;</text></g><ellipse cx="16" cy="159" fill="#181818" rx="10" ry="10" style="stroke:none;stroke-width:1.0;"/><ellipse cx="858" cy="540" fill="none" rx="10" ry="10" style="stroke:#181818;stroke-width:1.0;"/><ellipse cx="858.5" cy="540.5" fill="#181818" rx="6" ry="6" style="stroke:none;stroke-width:1.0;"/><!--link *start* to ????--><g id="link_*start*_&#36710;&#36742;&#36827;&#20837;"><path d="M26.05,159 C35.92,159 45.79,159 55.66,159 " fill="none" id="*start*-to-&#36710;&#36742;&#36827;&#20837;" style="stroke:#181818;stroke-width:1.0;stroke-dasharray:7.0,7.0;"/><polygon fill="#181818" points="60.82,159,51.82,155,55.82,159,51.82,163,60.82,159" style="stroke:#181818;stroke-width:1.0;"/></g><!--link ???? to ?????--><g id="link_&#36710;&#36742;&#36827;&#20837;_&#36710;&#36742;&#34987;&#35782;&#21035;"><path d="M137.18,159 C168.22,159 212.28,159 246.29,159 " fill="none" id="&#36710;&#36742;&#36827;&#20837;-to-&#36710;&#36742;&#34987;&#35782;&#21035;" style="stroke:#181818;stroke-width:1.0;stroke-dasharray:7.0,7.0;"/><polygon fill="#181818" points="251.65,159,242.65,155,246.65,159,242.65,163,251.65,159" style="stroke:#181818;stroke-width:1.0;"/><text fill="#000000" font-family="sans-serif" font-size="13" lengthAdjust="spacing" textLength="78" x="155.5" y="152.0669">&#30830;&#35748;&#36710;&#36742;&#26631;&#35782;</text></g><!--reverse link ?????? to ????--><g id="link_&#36710;&#36742;&#20449;&#24687;&#30028;&#38754;_&#36710;&#36742;&#36827;&#20837;"><path d="M99,62.19 C99,84.02 99,113.5 99,133.97 " fill="none" id="&#36710;&#36742;&#20449;&#24687;&#30028;&#38754;-backto-&#36710;&#36742;&#36827;&#20837;" style="stroke:#181818;stroke-width:1.0;"/><polygon fill="#181818" points="99,57.1,95,66.1,99,62.1,103,66.1,99,57.1" style="stroke:#181818;stroke-width:1.0;"/><text fill="#000000" font-family="sans-serif" font-size="13" lengthAdjust="spacing" textLength="78" x="100" y="100.0669">&#35831;&#27714;&#29992;&#25143;&#35782;&#21035;</text></g><!--link ????? to ?????--><g id="link_&#36710;&#36742;&#34987;&#35782;&#21035;_&#36710;&#36742;&#21487;&#36890;&#34892;"><path d="M342.17,159 C377.83,159 427.56,159 464.53,159 " fill="none" id="&#36710;&#36742;&#34987;&#35782;&#21035;-to-&#36710;&#36742;&#21487;&#36890;&#34892;" style="stroke:#181818;stroke-width:1.0;stroke-dasharray:7.0,7.0;"/><polygon fill="#181818" points="469.89,159,460.89,155,464.89,159,460.89,163,469.89,159" style="stroke:#181818;stroke-width:1.0;"/><text fill="#000000" font-family="sans-serif" font-size="13" lengthAdjust="spacing" textLength="91" x="360.5" y="152.0669">&#40657;&#21517;&#21333;&#26597;&#35810;&#36890;&#36807;</text></g><!--reverse link ????? to ?????--><g id="link_&#40657;&#21517;&#21333;&#26381;&#21153;_&#36710;&#36742;&#34987;&#35782;&#21035;"><path d="M297,62.19 C297,84.02 297,113.5 297,133.97 " fill="none" id="&#40657;&#21517;&#21333;&#26381;&#21153;-backto-&#36710;&#36742;&#34987;&#35782;&#21035;" style="stroke:#181818;stroke-width:1.0;"/><polygon fill="#181818" points="297,57.1,293,66.1,297,62.1,301,66.1,297,57.1" style="stroke:#181818;stroke-width:1.0;"/><text fill="#000000" font-family="sans-serif" font-size="13" lengthAdjust="spacing" textLength="65" x="298" y="100.0669">&#21512;&#27861;&#24615;&#39564;&#35777;</text></g><!--link ????? to ????--><g id="link_&#36710;&#36742;&#34987;&#35782;&#21035;_&#36710;&#36742;&#24322;&#24120;"><path d="M319.72,184.27 C350.48,216.17 408.09,272.64 465,311 C518.11,346.79 585.79,377.33 629.02,395.18 " fill="none" id="&#36710;&#36742;&#34987;&#35782;&#21035;-to-&#36710;&#36742;&#24322;&#24120;" style="stroke:#181818;stroke-width:1.0;stroke-dasharray:7.0,7.0;"/><polygon fill="#181818" points="633.65,397.08,626.8432,389.9619,629.0245,395.1813,623.8052,397.3627,633.65,397.08" style="stroke:#181818;stroke-width:1.0;"/><text fill="#000000" font-family="sans-serif" font-size="13" lengthAdjust="spacing" textLength="104" x="466" y="290.5669">&#40657;&#21517;&#21333;&#26597;&#35810;&#26410;&#36890;&#36807;</text></g><!--link ????? to ????--><g id="link_&#36710;&#36742;&#21487;&#36890;&#34892;_&#34892;&#31243;&#33719;&#21462;"><path d="M560.19,159 C586.04,159 618.29,159 643.8,159 " fill="none" id="&#36710;&#36742;&#21487;&#36890;&#34892;-to-&#34892;&#31243;&#33719;&#21462;" style="stroke:#181818;stroke-width:1.0;stroke-dasharray:7.0,7.0;"/><polygon fill="#181818" points="648.8,159,639.8,155,643.8,159,639.8,163,648.8,159" style="stroke:#181818;stroke-width:1.0;"/><text fill="#000000" font-family="sans-serif" font-size="13" lengthAdjust="spacing" textLength="52" x="578.5" y="152.0669">&#35835;&#21345;&#25104;&#21151;</text></g><!--reverse link ???? to ?????--><g id="link_&#35835;&#21345;&#26381;&#21153;_&#36710;&#36742;&#21487;&#36890;&#34892;"><path d="M554.2,61.92 C545.29,83.77 533.19,113.42 524.8,133.97 " fill="none" id="&#35835;&#21345;&#26381;&#21153;-backto-&#36710;&#36742;&#21487;&#36890;&#34892;" style="stroke:#181818;stroke-width:1.0;"/><polygon fill="#181818" points="556.17,57.1,549.07,63.9256,554.2835,61.7305,556.4787,66.944,556.17,57.1" style="stroke:#181818;stroke-width:1.0;"/><text fill="#000000" font-family="sans-serif" font-size="13" lengthAdjust="spacing" textLength="52" x="545" y="100.0669">&#35201;&#27714;&#35835;&#21345;</text></g><!--reverse link CPC???? to ?????--><g id="link_CPC&#35835;&#21345;&#30028;&#38754;_&#36710;&#36742;&#21487;&#36890;&#34892;"><path d="M439.4,62.29 C440.27,75.72 442.99,91.43 450,104 C456.43,115.53 466.37,125.63 476.57,133.88 " fill="none" id="CPC&#35835;&#21345;&#30028;&#38754;-backto-&#36710;&#36742;&#21487;&#36890;&#34892;" style="stroke:#181818;stroke-width:1.0;"/><polygon fill="#181818" points="439.14,57.07,435.6075,66.2636,439.3968,62.0634,443.597,65.8527,439.14,57.07" style="stroke:#181818;stroke-width:1.0;"/><text fill="#000000" font-family="sans-serif" font-size="13" lengthAdjust="spacing" textLength="78" x="451" y="100.0669">&#26174;&#31034;&#34892;&#31243;&#20449;&#24687;</text></g><!--link ???? to ?????--><g id="link_&#34892;&#31243;&#33719;&#21462;_&#36153;&#29992;&#24050;&#35745;&#31639;"><path d="M725.17,159 C749.76,159 782,159 808.67,159 " fill="none" id="&#34892;&#31243;&#33719;&#21462;-to-&#36153;&#29992;&#24050;&#35745;&#31639;" style="stroke:#181818;stroke-width:1.0;stroke-dasharray:7.0,7.0;"/><polygon fill="#181818" points="813.92,159,804.92,155,808.92,159,804.92,163,813.92,159" style="stroke:#181818;stroke-width:1.0;"/><text fill="#000000" font-family="sans-serif" font-size="13" lengthAdjust="spacing" textLength="52" x="743.5" y="152.0669">&#35745;&#36153;&#25104;&#21151;</text></g><!--reverse link ???? to ????--><g id="link_&#35745;&#36153;&#26381;&#21153;_&#34892;&#31243;&#33719;&#21462;"><path d="M687,62.19 C687,84.02 687,113.5 687,133.97 " fill="none" id="&#35745;&#36153;&#26381;&#21153;-backto-&#34892;&#31243;&#33719;&#21462;" style="stroke:#181818;stroke-width:1.0;"/><polygon fill="#181818" points="687,57.1,683,66.1,687,62.1,691,66.1,687,57.1" style="stroke:#181818;stroke-width:1.0;"/><text fill="#000000" font-family="sans-serif" font-size="13" lengthAdjust="spacing" textLength="52" x="688" y="100.0669">&#35201;&#27714;&#35745;&#36153;</text></g><!--link ????? to ???--><g id="link_&#36153;&#29992;&#24050;&#35745;&#31639;_&#24050;&#25910;&#36153;"><path d="M904.09,159 C930.37,159 963.07,159 987.68,159 " fill="none" id="&#36153;&#29992;&#24050;&#35745;&#31639;-to-&#24050;&#25910;&#36153;" style="stroke:#181818;stroke-width:1.0;stroke-dasharray:7.0,7.0;"/><polygon fill="#181818" points="992.81,159,983.81,155,987.81,159,983.81,163,992.81,159" style="stroke:#181818;stroke-width:1.0;"/><text fill="#000000" font-family="sans-serif" font-size="13" lengthAdjust="spacing" textLength="52" x="922.5" y="152.0669">&#25910;&#36153;&#25104;&#21151;</text></g><!--reverse link ?????? to ?????--><g id="link_&#25910;&#36153;&#20449;&#24687;&#30028;&#38754;_&#36153;&#29992;&#24050;&#35745;&#31639;"><path d="M859,62.19 C859,84.02 859,113.5 859,133.97 " fill="none" id="&#25910;&#36153;&#20449;&#24687;&#30028;&#38754;-backto-&#36153;&#29992;&#24050;&#35745;&#31639;" style="stroke:#181818;stroke-width:1.0;"/><polygon fill="#181818" points="859,57.1,855,66.1,859,62.1,863,66.1,859,57.1" style="stroke:#181818;stroke-width:1.0;"/><text fill="#000000" font-family="sans-serif" font-size="13" lengthAdjust="spacing" textLength="78" x="860" y="100.0669">&#35831;&#25805;&#20316;&#21592;&#25910;&#36153;</text></g><!--link ??? to ????--><g id="link_&#24050;&#25910;&#36153;_&#24050;&#25171;&#21457;&#31080;"><path d="M1024,184.1 C1024,204.59 1024,234.08 1024,255.88 " fill="none" id="&#24050;&#25910;&#36153;-to-&#24050;&#25171;&#21457;&#31080;" style="stroke:#181818;stroke-width:1.0;stroke-dasharray:7.0,7.0;"/><polygon fill="#181818" points="1024,260.97,1028,251.97,1024,255.97,1020,251.97,1024,260.97" style="stroke:#181818;stroke-width:1.0;"/><text fill="#000000" font-family="sans-serif" font-size="13" lengthAdjust="spacing" textLength="78" x="1025" y="227.0669">&#25171;&#21360;&#21457;&#31080;&#25104;&#21151;</text></g><!--link ??? to ????--><g id="link_&#24050;&#25910;&#36153;_&#25171;&#21360;&#26381;&#21153;"><path d="M1055.22,159 C1079.08,159 1112.25,159 1138.68,159 " fill="none" id="&#24050;&#25910;&#36153;-to-&#25171;&#21360;&#26381;&#21153;" style="stroke:#181818;stroke-width:1.0;"/><polygon fill="#181818" points="1143.87,159,1134.87,155,1138.87,159,1134.87,163,1143.87,159" style="stroke:#181818;stroke-width:1.0;"/><text fill="#000000" font-family="sans-serif" font-size="13" lengthAdjust="spacing" textLength="52" x="1073.5" y="152.0669">&#21551;&#21160;&#25171;&#21360;</text></g><!--link ???? to ???--><g id="link_&#24050;&#25171;&#21457;&#31080;_&#24050;&#25918;&#34892;"><path d="M1026.89,311.1 C1029.35,331.59 1032.89,361.08 1035.51,382.88 " fill="none" id="&#24050;&#25171;&#21457;&#31080;-to-&#24050;&#25918;&#34892;" style="stroke:#181818;stroke-width:1.0;stroke-dasharray:7.0,7.0;"/><polygon fill="#181818" points="1036.12,387.97,1039.0128,378.5556,1035.5209,383.006,1031.0704,379.5141,1036.12,387.97" style="stroke:#181818;stroke-width:1.0;"/><text fill="#000000" font-family="sans-serif" font-size="13" lengthAdjust="spacing" textLength="52" x="1033" y="354.0669">&#25260;&#26438;&#25104;&#21151;</text></g><!--link ???? to ????--><g id="link_&#24050;&#25171;&#21457;&#31080;_&#26639;&#26438;&#26381;&#21153;"><path d="M1062.35,286 C1080.13,286 1101.33,286 1119.68,286 " fill="none" id="&#24050;&#25171;&#21457;&#31080;-to-&#26639;&#26438;&#26381;&#21153;" style="stroke:#181818;stroke-width:1.0;"/><polygon fill="#181818" points="1124.77,286,1115.77,282,1119.77,286,1115.77,290,1124.77,286" style="stroke:#181818;stroke-width:1.0;"/><text fill="#000000" font-family="sans-serif" font-size="13" lengthAdjust="spacing" textLength="26" x="1080.5" y="279.0669">&#25260;&#26438;</text></g><!--link ??? to ????--><g id="link_&#24050;&#25918;&#34892;_&#36710;&#36742;&#39542;&#20986;"><path d="M1035.34,438.1 C1032.22,458.59 1027.74,488.08 1024.43,509.88 " fill="none" id="&#24050;&#25918;&#34892;-to-&#36710;&#36742;&#39542;&#20986;" style="stroke:#181818;stroke-width:1.0;stroke-dasharray:7.0,7.0;"/><polygon fill="#181818" points="1023.65,514.97,1028.9432,506.6644,1024.3931,510.0255,1021.032,505.4755,1023.65,514.97" style="stroke:#181818;stroke-width:1.0;"/><text fill="#000000" font-family="sans-serif" font-size="13" lengthAdjust="spacing" textLength="26" x="1031" y="481.0669">&#39542;&#20986;</text></g><!--link ??? to ??????--><g id="link_&#24050;&#25918;&#34892;_&#30830;&#35748;&#23436;&#25104;&#30028;&#38754;"><path d="M1070.34,413 C1080.14,413 1089.95,413 1099.75,413 " fill="none" id="&#24050;&#25918;&#34892;-to-&#30830;&#35748;&#23436;&#25104;&#30028;&#38754;" style="stroke:#181818;stroke-width:1.0;"/><polygon fill="#181818" points="1104.87,413,1095.87,409,1099.87,413,1095.87,417,1104.87,413" style="stroke:#181818;stroke-width:1.0;"/></g><!--link ???? to ????--><g id="link_&#36710;&#36742;&#36827;&#20837;_&#36710;&#36742;&#24322;&#24120;"><path d="M131.5,184.17 C176.55,216.74 261.44,274.8 341,311 C440,356.05 564.51,387.89 628.94,402.68 " fill="none" id="&#36710;&#36742;&#36827;&#20837;-to-&#36710;&#36742;&#24322;&#24120;" style="stroke:#181818;stroke-width:1.0;stroke-dasharray:7.0,7.0;"/><polygon fill="#181818" points="633.85,403.8,625.9685,397.8939,628.9759,402.6851,624.1847,405.6925,633.85,403.8" style="stroke:#181818;stroke-width:1.0;"/><text fill="#000000" font-family="sans-serif" font-size="13" lengthAdjust="spacing" textLength="52" x="342" y="290.5669">&#26410;&#33021;&#35782;&#21035;</text></g><!--link ????? to ????--><g id="link_&#36710;&#36742;&#21487;&#36890;&#34892;_&#36710;&#36742;&#24322;&#24120;"><path d="M529.97,184.06 C548.51,213.87 581.07,266.18 609,311 C624.24,335.46 641.57,363.24 654.19,383.47 " fill="none" id="&#36710;&#36742;&#21487;&#36890;&#34892;-to-&#36710;&#36742;&#24322;&#24120;" style="stroke:#181818;stroke-width:1.0;stroke-dasharray:7.0,7.0;"/><polygon fill="#181818" points="656.97,387.92,655.6068,378.1659,654.3264,383.676,648.8164,382.3957,656.97,387.92" style="stroke:#181818;stroke-width:1.0;"/><text fill="#000000" font-family="sans-serif" font-size="13" lengthAdjust="spacing" textLength="52" x="610" y="290.5669">&#35835;&#21345;&#22833;&#36133;</text></g><!--link ???? to ????--><g id="link_&#34892;&#31243;&#33719;&#21462;_&#36710;&#36742;&#24322;&#24120;"><path d="M682.7,184.4 C679.33,204.79 674.9,234.69 673,261 C669.94,303.27 670.35,352.36 671.06,382.81 " fill="none" id="&#34892;&#31243;&#33719;&#21462;-to-&#36710;&#36742;&#24322;&#24120;" style="stroke:#181818;stroke-width:1.0;stroke-dasharray:7.0,7.0;"/><polygon fill="#181818" points="671.19,387.9,674.9573,378.8002,671.0615,382.9017,666.96,379.0058,671.19,387.9" style="stroke:#181818;stroke-width:1.0;"/><text fill="#000000" font-family="sans-serif" font-size="13" lengthAdjust="spacing" textLength="52" x="674" y="290.5669">&#35745;&#36153;&#22833;&#36133;</text></g><!--link ????? to ????--><g id="link_&#36153;&#29992;&#24050;&#35745;&#31639;_&#36710;&#36742;&#24322;&#24120;"><path d="M841.07,184.16 C806.3,231.01 729.9,333.97 692.9,383.83 " fill="none" id="&#36153;&#29992;&#24050;&#35745;&#31639;-to-&#36710;&#36742;&#24322;&#24120;" style="stroke:#181818;stroke-width:1.0;stroke-dasharray:7.0,7.0;"/><polygon fill="#181818" points="689.88,387.91,698.4607,383.0757,692.864,383.898,692.0416,378.3013,689.88,387.91" style="stroke:#181818;stroke-width:1.0;"/><text fill="#000000" font-family="sans-serif" font-size="13" lengthAdjust="spacing" textLength="52" x="783" y="290.5669">&#25910;&#36153;&#22833;&#36133;</text></g><!--link ??? to ????--><g id="link_&#24050;&#25910;&#36153;_&#36710;&#36742;&#24322;&#24120;"><path d="M997.98,184.23 C963.95,215.34 901.82,270.2 844,311 C801.76,340.81 750.29,370.2 714.72,389.52 " fill="none" id="&#24050;&#25910;&#36153;-to-&#36710;&#36742;&#24322;&#24120;" style="stroke:#181818;stroke-width:1.0;stroke-dasharray:7.0,7.0;"/><polygon fill="#181818" points="710.03,392.06,719.8484,391.2865,714.4255,389.6767,716.0352,384.2538,710.03,392.06" style="stroke:#181818;stroke-width:1.0;"/><text fill="#000000" font-family="sans-serif" font-size="13" lengthAdjust="spacing" textLength="52" x="907" y="290.5669">&#25171;&#31080;&#22833;&#36133;</text></g><!--link ???? to ????--><g id="link_&#24050;&#25171;&#21457;&#31080;_&#36710;&#36742;&#24322;&#24120;"><path d="M992.63,311.29 C971.25,326.75 941.72,346.04 913,358 C846.99,385.5 764.71,400.09 715.37,406.92 " fill="none" id="&#24050;&#25171;&#21457;&#31080;-to-&#36710;&#36742;&#24322;&#24120;" style="stroke:#181818;stroke-width:1.0;stroke-dasharray:7.0,7.0;"/><polygon fill="#181818" points="710.4,407.59,719.8554,410.3458,715.3548,406.9189,718.7817,402.4182,710.4,407.59" style="stroke:#181818;stroke-width:1.0;"/><text fill="#000000" font-family="sans-serif" font-size="13" lengthAdjust="spacing" textLength="52" x="946" y="354.0669">&#25260;&#26438;&#22833;&#36133;</text></g><!--link ???? to *end*--><g id="link_&#36710;&#36742;&#24322;&#24120;_*end*"><path d="M707.86,438.1 C750.17,466.54 818.25,512.29 845.82,530.81 " fill="none" id="&#36710;&#36742;&#24322;&#24120;-to-*end*" style="stroke:#181818;stroke-width:1.0;stroke-dasharray:7.0,7.0;"/><polygon fill="#181818" points="850.19,533.75,844.9534,525.4087,846.0408,530.96,840.4894,532.0474,850.19,533.75" style="stroke:#181818;stroke-width:1.0;"/><text fill="#000000" font-family="sans-serif" font-size="13" lengthAdjust="spacing" textLength="52" x="778" y="481.0669">&#22788;&#29702;&#23436;&#25104;</text></g><!--link ???? to ????--><g id="link_&#36710;&#36742;&#24322;&#24120;_&#29305;&#24773;&#22788;&#29702;"><path d="M672,438.1 C672,458.59 672,488.08 672,509.88 " fill="none" id="&#36710;&#36742;&#24322;&#24120;-to-&#29305;&#24773;&#22788;&#29702;" style="stroke:#181818;stroke-width:1.0;"/><polygon fill="#181818" points="672,514.97,676,505.97,672,509.97,668,505.97,672,514.97" style="stroke:#181818;stroke-width:1.0;"/></g><!--reverse link *end* to ????--><g id="link_*end*_&#36710;&#36742;&#39542;&#20986;"><path d="M873.3,540 C897.99,540 947.37,540 982,540 " fill="none" id="*end*-backto-&#36710;&#36742;&#39542;&#20986;" style="stroke:#181818;stroke-width:1.0;stroke-dasharray:7.0,7.0;"/><polygon fill="#181818" points="868.13,540,877.13,544,873.13,540,877.13,536,868.13,540" style="stroke:#181818;stroke-width:1.0;"/><text fill="#000000" font-family="sans-serif" font-size="13" lengthAdjust="spacing" textLength="26" x="912" y="533.0669">&#23436;&#25104;</text></g><!--SRC=[XLLBJnfH5DxFhvY4NHF-m2owA0itJUggIKDSa315qWaO66Ew4wsy2WM2jAR5A0IKQiFKbeXeWJ_ZlJFyYzxdp9qxF5ZfEUVxldFFQx9cpDJLnLC3rAkWseBjAYXtr50YetzKiiJd33lEQC8TUydK1vLxfbVEBFyyxy2SPRSgY_Ek6dgd6qRwW4V0qtk4NHSHsOuurXEeTfQxxSxG6VR0i0ABTJc2QrpMu7cUvvVHuznUQeBgRsutaebT4xrAJ_7aYIftfpEnL4BdegK9F3u1lKzsFQ-6NXdx-jjasj1DnVTkP_u3dFJLK2WQJvkc7j_P4chMgTY3pywNCQXz5IBUY2gK1TIinU5t5B-2Y4frRnqh3ugtGj1h_22S6uySJUpJ0HZ_GVsoXz-4o6tKCXQ4tBGbQuXm32fThM7t1q8OAU2MK432DVDdxbMV9hxuUGyAZ-kofaNuTmGU7kIm26gAeQ1VzCME6ivWKpGUo-uYV_YbhmcAucl9gbYtYXgRAsg7bmLaboZszroSEBuQcfinl3j2fOR5CQLprLt-5GbulTQ4ZRleErONs-U5815EGrfEJGNr8lpRWeVNYvkAO-MMwCVJ1wcWFAroG1ksRvYy8kSPvYJaGPX976oDBr6n3ieNGJ2jeRXd276LG-MZnXK8-IHeAZoRsRr7gasxWL8LCmaKFB0E6hzZB5SVciZw3vsRAJ4YEOalgEZjbiRk7jUIeKHkoMcamzMiFa_Re7560nJ5umtBSkwQQkpQqN-PhW3axVCVHJn95YWFg94gkPJo30dxZjJAl_3DzNGyc2SbtcKEOSyXDCkdb9qCDANa3p6UKo_vACWNOFq2e8btZgTiUmD3k1vBHnFqxfnHNngZ3K0oIHmepyI6X4aV6LRewmPKgObQ8g1MDbS6abuneE9pYZE8xpAQ8VATfDsGOh4AxfVmFULqhCrXGtzl1Yaf6Vxz1m00]--></g></svg>