<?xml version="1.0" encoding="UTF-8" standalone="no"?><svg xmlns="http://www.w3.org/2000/svg" xmlns:xlink="http://www.w3.org/1999/xlink" contentStyleType="text/css" height="571px" preserveAspectRatio="none" style="width:1226px;height:571px;background:#FFFFFF;" version="1.1" viewBox="0 0 1226 571" width="1226px" zoomAndPan="magnify"><defs/><g><g id="黑名单服务"><rect fill="#808080" height="50" rx="12.5" ry="12.5" style="stroke:#181818;stroke-width:0.5;" width="90" x="252" y="7"/><line style="stroke:#181818;stroke-width:0.5;" x1="252" x2="342" y1="33.4883" y2="33.4883"/><text fill="#000000" font-family="sans-serif" font-size="14" lengthAdjust="spacing" textLength="70" x="262" y="25.5352">黑名单服务</text></g><g id="计费服务"><rect fill="#FFC0CB" height="50" rx="12.5" ry="12.5" style="stroke:#181818;stroke-width:0.5;" width="76" x="649" y="7"/><line style="stroke:#181818;stroke-width:0.5;" x1="649" x2="725" y1="33.4883" y2="33.4883"/><text fill="#000000" font-family="sans-serif" font-size="14" lengthAdjust="spacing" textLength="56" x="659" y="25.5352">计费服务</text></g><g id="车辆信息界面"><rect fill="#FFFF00" height="50" rx="12.5" ry="12.5" style="stroke:#181818;stroke-width:0.5;" width="104" x="47" y="7"/><line style="stroke:#181818;stroke-width:0.5;" x1="47" x2="151" y1="33.4883" y2="33.4883"/><text fill="#000000" font-family="sans-serif" font-size="14" lengthAdjust="spacing" textLength="84" x="57" y="25.5352">车辆信息界面</text></g><g id="收费信息界面"><rect fill="#FFFF00" height="50" rx="12.5" ry="12.5" style="stroke:#181818;stroke-width:0.5;" width="104" x="807" y="7"/><line style="stroke:#181818;stroke-width:0.5;" x1="807" x2="911" y1="33.4883" y2="33.4883"/><text fill="#000000" font-family="sans-serif" font-size="14" lengthAdjust="spacing" textLength="84" x="817" y="25.5352">收费信息界面</text></g><g id="CPC读卡界面"><rect fill="#FFFF00" height="50" rx="12.5" ry="12.5" style="stroke:#181818;stroke-width:0.5;" width="104" x="388" y="7"/><line style="stroke:#181818;stroke-width:0.5;" x1="388" x2="492" y1="33.4883" y2="33.4883"/><text fill="#000000" font-family="sans-serif" font-size="14" lengthAdjust="spacing" textLength="84" x="398" y="25.5352">CPC读卡界面</text></g><g id="确认完成界面"><rect fill="#FFFF00" height="50" rx="12.5" ry="12.5" style="stroke:#181818;stroke-width:0.5;" width="104" x="1104" y="388"/><line style="stroke:#181818;stroke-width:0.5;" x1="1104" x2="1208" y1="414.4883" y2="414.4883"/><text fill="#000000" font-family="sans-serif" font-size="14" lengthAdjust="spacing" textLength="84" x="1114" y="406.5352">确认完成界面</text></g><g id="栏杆服务"><rect fill="#FF0000" height="50" rx="12.5" ry="12.5" style="stroke:#181818;stroke-width:0.5;" width="76" x="1124" y="261"/><line style="stroke:#181818;stroke-width:0.5;" x1="1124" x2="1200" y1="287.4883" y2="287.4883"/><text fill="#000000" font-family="sans-serif" font-size="14" lengthAdjust="spacing" textLength="56" x="1134" y="279.5352">栏杆服务</text></g><g id="打印服务"><rect fill="#90EE90" height="50" rx="12.5" ry="12.5" style="stroke:#181818;stroke-width:0.5;" width="76" x="1143" y="134"/><line style="stroke:#181818;stroke-width:0.5;" x1="1143" x2="1219" y1="160.4883" y2="160.4883"/><text fill="#000000" font-family="sans-serif" font-size="14" lengthAdjust="spacing" textLength="56" x="1153" y="152.5352">打印服务</text></g><g id="读卡服务"><rect fill="#FFA500" height="50" rx="12.5" ry="12.5" style="stroke:#181818;stroke-width:0.5;" width="76" x="527" y="7"/><line style="stroke:#181818;stroke-width:0.5;" x1="527" x2="603" y1="33.4883" y2="33.4883"/><text fill="#000000" font-family="sans-serif" font-size="14" lengthAdjust="spacing" textLength="56" x="537" y="25.5352">读卡服务</text></g><g id="特情处理"><rect fill="#8A2BE2" height="50" rx="12.5" ry="12.5" style="stroke:#181818;stroke-width:0.5;" width="76" x="633" y="515"/><line style="stroke:#181818;stroke-width:0.5;" x1="633" x2="709" y1="541.4883" y2="541.4883"/><text fill="#000000" font-family="sans-serif" font-size="14" lengthAdjust="spacing" textLength="56" x="643" y="533.5352">特情处理</text></g><g id="车辆进入"><rect fill="#F1F1F1" height="50" rx="12.5" ry="12.5" style="stroke:#808080;stroke-width:1.0;stroke-dasharray:1.0,3.0;" width="76" x="61" y="134"/><line style="stroke:#808080;stroke-width:1.0;stroke-dasharray:1.0,3.0;" x1="61" x2="137" y1="160.4883" y2="160.4883"/><text fill="#000000" font-family="sans-serif" font-size="14" lengthAdjust="spacing" textLength="56" x="71" y="152.5352">车辆进入</text></g><g id="行程获取"><rect fill="#F1F1F1" height="50" rx="12.5" ry="12.5" style="stroke:#FFA500;stroke-width:1.0;stroke-dasharray:1.0,3.0;" width="76" x="649" y="134"/><line style="stroke:#FFA500;stroke-width:1.0;stroke-dasharray:1.0,3.0;" x1="649" x2="725" y1="160.4883" y2="160.4883"/><text fill="#000000" font-family="sans-serif" font-size="14" lengthAdjust="spacing" textLength="56" x="659" y="152.5352">行程获取</text></g><g id="车辆可通行"><rect fill="#F1F1F1" height="50" rx="12.5" ry="12.5" style="stroke:#808080;stroke-width:1.0;stroke-dasharray:1.0,3.0;" width="90" x="470" y="134"/><line style="stroke:#808080;stroke-width:1.0;stroke-dasharray:1.0,3.0;" x1="470" x2="560" y1="160.4883" y2="160.4883"/><text fill="#000000" font-family="sans-serif" font-size="14" lengthAdjust="spacing" textLength="70" x="480" y="152.5352">车辆可通行</text></g><g id="车辆被识别"><rect fill="#F1F1F1" height="50" rx="12.5" ry="12.5" style="stroke:#ADD8E6;stroke-width:1.0;stroke-dasharray:1.0,3.0;" width="90" x="252" y="134"/><line style="stroke:#ADD8E6;stroke-width:1.0;stroke-dasharray:1.0,3.0;" x1="252" x2="342" y1="160.4883" y2="160.4883"/><text fill="#000000" font-family="sans-serif" font-size="14" lengthAdjust="spacing" textLength="70" x="262" y="152.5352">车辆被识别</text></g><g id="费用已计算"><rect fill="#F1F1F1" height="50" rx="12.5" ry="12.5" style="stroke:#FFC0CB;stroke-width:1.0;stroke-dasharray:1.0,3.0;" width="90" x="814" y="134"/><line style="stroke:#FFC0CB;stroke-width:1.0;stroke-dasharray:1.0,3.0;" x1="814" x2="904" y1="160.4883" y2="160.4883"/><text fill="#000000" font-family="sans-serif" font-size="14" lengthAdjust="spacing" textLength="70" x="824" y="152.5352">费用已计算</text></g><g id="已收费"><rect fill="#F1F1F1" height="50" rx="12.5" ry="12.5" style="stroke:#ADD8E6;stroke-width:1.0;stroke-dasharray:1.0,3.0;" width="62" x="992" y="134"/><line style="stroke:#ADD8E6;stroke-width:1.0;stroke-dasharray:1.0,3.0;" x1="992" x2="1054" y1="160.4883" y2="160.4883"/><text fill="#000000" font-family="sans-serif" font-size="14" lengthAdjust="spacing" textLength="42" x="1002" y="152.5352">已收费</text></g><g id="已打发票"><rect fill="#F1F1F1" height="50" rx="12.5" ry="12.5" style="stroke:#90EE90;stroke-width:1.0;stroke-dasharray:1.0,3.0;" width="76" x="985" y="261"/><line style="stroke:#90EE90;stroke-width:1.0;stroke-dasharray:1.0,3.0;" x1="985" x2="1061" y1="287.4883" y2="287.4883"/><text fill="#000000" font-family="sans-serif" font-size="14" lengthAdjust="spacing" textLength="56" x="995" y="279.5352">已打发票</text></g><g id="已放行"><rect fill="#F1F1F1" height="50" rx="12.5" ry="12.5" style="stroke:#FF0000;stroke-width:1.0;stroke-dasharray:1.0,3.0;" width="62" x="1007" y="388"/><line style="stroke:#FF0000;stroke-width:1.0;stroke-dasharray:1.0,3.0;" x1="1007" x2="1069" y1="414.4883" y2="414.4883"/><text fill="#000000" font-family="sans-serif" font-size="14" lengthAdjust="spacing" textLength="42" x="1017" y="406.5352">已放行</text></g><g id="车辆驶出"><rect fill="#F1F1F1" height="50" rx="12.5" ry="12.5" style="stroke:#ADD8E6;stroke-width:1.0;stroke-dasharray:1.0,3.0;" width="76" x="981" y="515"/><line style="stroke:#ADD8E6;stroke-width:1.0;stroke-dasharray:1.0,3.0;" x1="981" x2="1057" y1="541.4883" y2="541.4883"/><text fill="#000000" font-family="sans-serif" font-size="14" lengthAdjust="spacing" textLength="56" x="991" y="533.5352">车辆驶出</text></g><g id="车辆异常"><rect fill="#F1F1F1" height="50" rx="12.5" ry="12.5" style="stroke:#F08080;stroke-width:1.0;stroke-dasharray:1.0,3.0;" width="76" x="633" y="388"/><line style="stroke:#F08080;stroke-width:1.0;stroke-dasharray:1.0,3.0;" x1="633" x2="709" y1="414.4883" y2="414.4883"/><text fill="#000000" font-family="sans-serif" font-size="14" lengthAdjust="spacing" textLength="56" x="643" y="406.5352">车辆异常</text></g><ellipse cx="16" cy="159" fill="#222222" rx="10" ry="10" style="stroke:none;stroke-width:1.0;"/><ellipse cx="857" cy="540" fill="none" rx="10" ry="10" style="stroke:#222222;stroke-width:1.0;"/><ellipse cx="857.5" cy="540.5" fill="#222222" rx="6" ry="6" style="stroke:none;stroke-width:1.0;"/><!--MD5=[8292e72c301992d405ba2cba0fadda6d]
link *start to 车辆进入--><g id="link_*start_车辆进入"><path d="M26.38,159 C35.85,159 45.33,159 54.8,159 " fill="none" id="*start-to-车辆进入" style="stroke:#181818;stroke-width:1.0;stroke-dasharray:7.0,7.0;"/><polygon fill="#181818" points="59.7,159,50.7,155,54.7,159,50.7,163,59.7,159" style="stroke:#181818;stroke-width:1.0;"/></g><!--MD5=[ad35766110ec71eafd606a4a894b1ba6]
link 车辆进入 to 车辆被识别--><g id="link_车辆进入_车辆被识别"><path d="M137.18,159 C168.09,159 211.92,159 245.86,159 " fill="none" id="车辆进入-to-车辆被识别" style="stroke:#181818;stroke-width:1.0;stroke-dasharray:7.0,7.0;"/><polygon fill="#181818" points="250.65,159,241.65,155,245.65,159,241.65,163,250.65,159" style="stroke:#181818;stroke-width:1.0;"/><text fill="#000000" font-family="sans-serif" font-size="13" lengthAdjust="spacing" textLength="78" x="155.5" y="152.5684">确认车辆标识</text></g><!--MD5=[eff24b835613bb385825f2334ea2a35c]
reverse link 车辆信息界面 to 车辆进入--><g id="link_车辆信息界面_车辆进入"><path d="M99,63.29 C99,84.89 99,113.55 99,133.66 " fill="none" id="车辆信息界面-backto-车辆进入" style="stroke:#181818;stroke-width:1.0;"/><polygon fill="#181818" points="99,58.4,95,67.4,99,63.4,103,67.4,99,58.4" style="stroke:#181818;stroke-width:1.0;"/><text fill="#000000" font-family="sans-serif" font-size="13" lengthAdjust="spacing" textLength="78" x="100" y="100.5684">请求用户识别</text></g><!--MD5=[fd671c86714b347038089bf2d92f29a0]
link 车辆被识别 to 车辆可通行--><g id="link_车辆被识别_车辆可通行"><path d="M342.43,159 C377.85,159 427.03,159 463.83,159 " fill="none" id="车辆被识别-to-车辆可通行" style="stroke:#181818;stroke-width:1.0;stroke-dasharray:7.0,7.0;"/><polygon fill="#181818" points="468.62,159,459.62,155,463.62,159,459.62,163,468.62,159" style="stroke:#181818;stroke-width:1.0;"/><text fill="#000000" font-family="sans-serif" font-size="13" lengthAdjust="spacing" textLength="91" x="360.5" y="152.5684">黑名单查询通过</text></g><!--MD5=[99c7c3bb7b9bada7c224c1dc09c0b495]
reverse link 黑名单服务 to 车辆被识别--><g id="link_黑名单服务_车辆被识别"><path d="M297,63.29 C297,84.89 297,113.55 297,133.66 " fill="none" id="黑名单服务-backto-车辆被识别" style="stroke:#181818;stroke-width:1.0;"/><polygon fill="#181818" points="297,58.4,293,67.4,297,63.4,301,67.4,297,58.4" style="stroke:#181818;stroke-width:1.0;"/><text fill="#000000" font-family="sans-serif" font-size="13" lengthAdjust="spacing" textLength="65" x="298" y="100.5684">合法性验证</text></g><!--MD5=[39c003040a96b71efb2d03c397a2b769]
link 车辆被识别 to 车辆异常--><g id="link_车辆被识别_车辆异常"><path d="M319.73,184.25 C350.5,216.13 408.13,272.59 465,311 C517.55,346.49 584.4,376.9 627.45,394.82 " fill="none" id="车辆被识别-to-车辆异常" style="stroke:#181818;stroke-width:1.0;stroke-dasharray:7.0,7.0;"/><polygon fill="#181818" points="631.84,397.05,625.0598,389.9066,627.2217,395.134,621.9942,397.2959,631.84,397.05" style="stroke:#181818;stroke-width:1.0;"/><text fill="#000000" font-family="sans-serif" font-size="13" lengthAdjust="spacing" textLength="104" x="466" y="291.0684">黑名单查询未通过</text></g><!--MD5=[5d002ab50e1e3c6e05b4468710975908]
link 车辆可通行 to 行程获取--><g id="link_车辆可通行_行程获取"><path d="M560.19,159 C585.62,159 617.25,159 642.56,159 " fill="none" id="车辆可通行-to-行程获取" style="stroke:#181818;stroke-width:1.0;stroke-dasharray:7.0,7.0;"/><polygon fill="#181818" points="647.52,159,638.52,155,642.52,159,638.52,163,647.52,159" style="stroke:#181818;stroke-width:1.0;"/><text fill="#000000" font-family="sans-serif" font-size="13" lengthAdjust="spacing" textLength="52" x="578.5" y="152.5684">读卡成功</text></g><!--MD5=[6d89b97221d6d11cc1405b0053fdc589]
reverse link 读卡服务 to 车辆可通行--><g id="link_读卡服务_车辆可通行"><path d="M553.11,62.74 C544.44,84.4 532.85,113.38 524.73,133.66 " fill="none" id="读卡服务-backto-车辆可通行" style="stroke:#181818;stroke-width:1.0;"/><polygon fill="#181818" points="555.24,58.4,548.1836,65.2707,553.383,63.0424,555.6114,68.2419,555.24,58.4" style="stroke:#181818;stroke-width:1.0;"/><text fill="#000000" font-family="sans-serif" font-size="13" lengthAdjust="spacing" textLength="52" x="544" y="100.5684">要求读卡</text></g><!--MD5=[a1fe4c21d866c900339f645a2329045c]
reverse link CPC读卡界面 to 车辆可通行--><g id="link_CPC读卡界面_车辆可通行"><path d="M439.47,63.31 C440.41,76.51 443.16,91.74 450,104 C456.36,115.4 466.15,125.4 476.23,133.6 " fill="none" id="CPC读卡界面-backto-车辆可通行" style="stroke:#181818;stroke-width:1.0;"/><polygon fill="#181818" points="439.15,58.4,435.6175,67.5936,439.4068,63.3934,443.607,67.1827,439.15,58.4" style="stroke:#181818;stroke-width:1.0;"/><text fill="#000000" font-family="sans-serif" font-size="13" lengthAdjust="spacing" textLength="78" x="451" y="100.5684">显示行程信息</text></g><!--MD5=[183ed0b399dcfdfd0265f08e6a906286]
link 行程获取 to 费用已计算--><g id="link_行程获取_费用已计算"><path d="M725.17,159 C749.46,159 781.22,159 807.7,159 " fill="none" id="行程获取-to-费用已计算" style="stroke:#181818;stroke-width:1.0;stroke-dasharray:7.0,7.0;"/><polygon fill="#181818" points="812.61,159,803.61,155,807.61,159,803.61,163,812.61,159" style="stroke:#181818;stroke-width:1.0;"/><text fill="#000000" font-family="sans-serif" font-size="13" lengthAdjust="spacing" textLength="52" x="743.5" y="152.5684">计费成功</text></g><!--MD5=[a0ffc64eeb08de24c1f0f494c6e5eca5]
reverse link 计费服务 to 行程获取--><g id="link_计费服务_行程获取"><path d="M687,63.29 C687,84.89 687,113.55 687,133.66 " fill="none" id="计费服务-backto-行程获取" style="stroke:#181818;stroke-width:1.0;"/><polygon fill="#181818" points="687,58.4,683,67.4,687,63.4,691,67.4,687,58.4" style="stroke:#181818;stroke-width:1.0;"/><text fill="#000000" font-family="sans-serif" font-size="13" lengthAdjust="spacing" textLength="52" x="688" y="100.5684">要求计费</text></g><!--MD5=[23d46871862919dd973962bf6f8b4e52]
link 费用已计算 to 已收费--><g id="link_费用已计算_已收费"><path d="M904.25,159 C929.86,159 961.5,159 985.68,159 " fill="none" id="费用已计算-to-已收费" style="stroke:#181818;stroke-width:1.0;stroke-dasharray:7.0,7.0;"/><polygon fill="#181818" points="990.65,159,981.65,155,985.65,159,981.65,163,990.65,159" style="stroke:#181818;stroke-width:1.0;"/><text fill="#000000" font-family="sans-serif" font-size="13" lengthAdjust="spacing" textLength="52" x="922" y="152.5684">收费成功</text></g><!--MD5=[f55e7dc3d709efd4d36886088a194428]
reverse link 收费信息界面 to 费用已计算--><g id="link_收费信息界面_费用已计算"><path d="M859,63.29 C859,84.89 859,113.55 859,133.66 " fill="none" id="收费信息界面-backto-费用已计算" style="stroke:#181818;stroke-width:1.0;"/><polygon fill="#181818" points="859,58.4,855,67.4,859,63.4,863,67.4,859,58.4" style="stroke:#181818;stroke-width:1.0;"/><text fill="#000000" font-family="sans-serif" font-size="13" lengthAdjust="spacing" textLength="78" x="860" y="100.5684">请操作员收费</text></g><!--MD5=[d89a989838e8c3bb910079d5131cf382]
link 已收费 to 已打发票--><g id="link_已收费_已打发票"><path d="M1023,184.4 C1023,204.53 1023,233.19 1023,254.78 " fill="none" id="已收费-to-已打发票" style="stroke:#181818;stroke-width:1.0;stroke-dasharray:7.0,7.0;"/><polygon fill="#181818" points="1023,259.66,1027,250.66,1023,254.66,1019,250.66,1023,259.66" style="stroke:#181818;stroke-width:1.0;"/><text fill="#000000" font-family="sans-serif" font-size="13" lengthAdjust="spacing" textLength="78" x="1024" y="227.5684">打印发票成功</text></g><!--MD5=[a99be8760d3426e9691d4b49549a4994]
link 已收费 to 打印服务--><g id="link_已收费_打印服务"><path d="M1054.22,159 C1077.79,159 1110.47,159 1136.74,159 " fill="none" id="已收费-to-打印服务" style="stroke:#181818;stroke-width:1.0;"/><polygon fill="#181818" points="1141.59,159,1132.59,155,1136.59,159,1132.59,163,1141.59,159" style="stroke:#181818;stroke-width:1.0;"/><text fill="#000000" font-family="sans-serif" font-size="13" lengthAdjust="spacing" textLength="52" x="1072.5" y="152.5684">启动打印</text></g><!--MD5=[6d148902e4d33d7f0d6ba359bc8f04e9]
link 已打发票 to 已放行--><g id="link_已打发票_已放行"><path d="M1025.93,311.4 C1028.34,331.53 1031.78,360.19 1034.37,381.78 " fill="none" id="已打发票-to-已放行" style="stroke:#181818;stroke-width:1.0;stroke-dasharray:7.0,7.0;"/><polygon fill="#181818" points="1035.08,386.66,1037.9696,377.2446,1034.4792,381.6962,1030.0275,378.2059,1035.08,386.66" style="stroke:#181818;stroke-width:1.0;"/><text fill="#000000" font-family="sans-serif" font-size="13" lengthAdjust="spacing" textLength="52" x="1032" y="354.5684">抬杆成功</text></g><!--MD5=[35349cf0f9493e583487736a0786ca46]
link 已打发票 to 栏杆服务--><g id="link_已打发票_栏杆服务"><path d="M1061.35,286 C1078.97,286 1099.97,286 1118.21,286 " fill="none" id="已打发票-to-栏杆服务" style="stroke:#181818;stroke-width:1.0;"/><polygon fill="#181818" points="1122.77,286,1113.77,282,1117.77,286,1113.77,290,1122.77,286" style="stroke:#181818;stroke-width:1.0;"/><text fill="#000000" font-family="sans-serif" font-size="13" lengthAdjust="spacing" textLength="26" x="1079.5" y="279.5684">抬杆</text></g><!--MD5=[70b155e081e16987964d26de8b620811]
link 已放行 to 车辆驶出--><g id="link_已放行_车辆驶出"><path d="M1034.29,438.4 C1031.23,458.53 1026.87,487.19 1023.59,508.78 " fill="none" id="已放行-to-车辆驶出" style="stroke:#181818;stroke-width:1.0;stroke-dasharray:7.0,7.0;"/><polygon fill="#181818" points="1022.7,513.66,1027.9932,505.3544,1023.4431,508.7155,1020.082,504.1655,1022.7,513.66" style="stroke:#181818;stroke-width:1.0;"/><text fill="#000000" font-family="sans-serif" font-size="13" lengthAdjust="spacing" textLength="26" x="1030" y="481.5684">驶出</text></g><!--MD5=[070fe2a2f933ea4f17b16972073f3bc4]
link 已放行 to 确认完成界面--><g id="link_已放行_确认完成界面"><path d="M1069.34,413 C1078.78,413 1088.22,413 1097.66,413 " fill="none" id="已放行-to-确认完成界面" style="stroke:#181818;stroke-width:1.0;"/><polygon fill="#181818" points="1102.53,413,1093.53,409,1097.53,413,1093.53,417,1102.53,413" style="stroke:#181818;stroke-width:1.0;"/></g><!--MD5=[fb830ddb8256670e320164e9b7527489]
link 车辆进入 to 车辆异常--><g id="link_车辆进入_车辆异常"><path d="M131.89,184.44 C177.04,217.05 261.68,274.87 341,311 C439.18,355.72 562.51,387.5 627.04,402.42 " fill="none" id="车辆进入-to-车辆异常" style="stroke:#181818;stroke-width:1.0;stroke-dasharray:7.0,7.0;"/><polygon fill="#181818" points="631.72,403.72,623.8385,397.8139,626.8459,402.6051,622.0547,405.6125,631.72,403.72" style="stroke:#181818;stroke-width:1.0;"/><text fill="#000000" font-family="sans-serif" font-size="13" lengthAdjust="spacing" textLength="52" x="342" y="291.0684">未能识别</text></g><!--MD5=[acea1e719c6540b52c6c8f0bff8c099b]
link 车辆可通行 to 车辆异常--><g id="link_车辆可通行_车辆异常"><path d="M529.94,184.35 C548.27,214.22 580.34,266.38 608,311 C622.96,335.13 640,362.44 652.58,382.58 " fill="none" id="车辆可通行-to-车辆异常" style="stroke:#181818;stroke-width:1.0;stroke-dasharray:7.0,7.0;"/><polygon fill="#181818" points="655.68,386.53,654.3168,376.7759,653.0364,382.286,647.5264,381.0057,655.68,386.53" style="stroke:#181818;stroke-width:1.0;"/><text fill="#000000" font-family="sans-serif" font-size="13" lengthAdjust="spacing" textLength="52" x="609" y="291.0684">读卡失败</text></g><!--MD5=[b02115d420b9ce38d545273f74ae56d4]
link 行程获取 to 车辆异常--><g id="link_行程获取_车辆异常"><path d="M682.39,184.38 C678.78,204.77 674.03,234.67 672,261 C668.78,302.78 669.19,351.26 669.95,381.78 " fill="none" id="行程获取-to-车辆异常" style="stroke:#181818;stroke-width:1.0;stroke-dasharray:7.0,7.0;"/><polygon fill="#181818" points="670.11,386.63,673.8767,377.5299,669.9811,381.6317,665.8793,377.7361,670.11,386.63" style="stroke:#181818;stroke-width:1.0;"/><text fill="#000000" font-family="sans-serif" font-size="13" lengthAdjust="spacing" textLength="52" x="673" y="291.0684">计费失败</text></g><!--MD5=[f26bf24c9b110c9812a9489b42ae886c]
link 费用已计算 to 车辆异常--><g id="link_费用已计算_车辆异常"><path d="M840.97,184.16 C806.25,230.71 730.22,332.62 692.75,382.84 " fill="none" id="费用已计算-to-车辆异常" style="stroke:#181818;stroke-width:1.0;stroke-dasharray:7.0,7.0;"/><polygon fill="#181818" points="689.25,386.54,697.839,381.7203,692.2408,382.5331,691.428,376.935,689.25,386.54" style="stroke:#181818;stroke-width:1.0;"/><text fill="#000000" font-family="sans-serif" font-size="13" lengthAdjust="spacing" textLength="52" x="782" y="291.0684">收费失败</text></g><!--MD5=[147a6d6bf405ae5819a35747594d3c6e]
link 已收费 to 车辆异常--><g id="link_已收费_车辆异常"><path d="M996.69,184.5 C962.59,215.66 900.66,270.32 843,311 C801.06,340.59 750.04,369.77 714.5,389.1 " fill="none" id="已收费-to-车辆异常" style="stroke:#181818;stroke-width:1.0;stroke-dasharray:7.0,7.0;"/><polygon fill="#181818" points="710.37,391.88,720.1874,391.0931,714.7622,389.4908,716.3646,384.0656,710.37,391.88" style="stroke:#181818;stroke-width:1.0;"/><text fill="#000000" font-family="sans-serif" font-size="13" lengthAdjust="spacing" textLength="52" x="906" y="291.0684">打票失败</text></g><!--MD5=[276df32e52af1afa7da668a0ee1a72d2]
link 已打发票 to 车辆异常--><g id="link_已打发票_车辆异常"><path d="M991.63,311.29 C970.25,326.75 940.72,346.04 912,358 C846.39,385.33 764.7,399.91 715.27,406.79 " fill="none" id="已打发票-to-车辆异常" style="stroke:#181818;stroke-width:1.0;stroke-dasharray:7.0,7.0;"/><polygon fill="#181818" points="710.4,407.59,719.8554,410.3458,715.3548,406.9189,718.7817,402.4182,710.4,407.59" style="stroke:#181818;stroke-width:1.0;"/><text fill="#000000" font-family="sans-serif" font-size="13" lengthAdjust="spacing" textLength="52" x="945" y="354.5684">抬杆失败</text></g><!--MD5=[a33833a7f4f9d6e18bea8de5ec125f68]
link 车辆异常 to *end--><g id="link_车辆异常_*end"><path d="M707.3,438.4 C749.3,466.62 816.25,511.62 844.15,530.36 " fill="none" id="车辆异常-to-*end" style="stroke:#181818;stroke-width:1.0;stroke-dasharray:7.0,7.0;"/><polygon fill="#181818" points="847.89,533.55,842.6534,525.2087,843.7408,530.76,838.1894,531.8474,847.89,533.55" style="stroke:#181818;stroke-width:1.0;"/><text fill="#000000" font-family="sans-serif" font-size="13" lengthAdjust="spacing" textLength="52" x="777" y="481.5684">处理完成</text></g><!--MD5=[85b402d3ad8f13edc501691fe4ef3dfa]
link 车辆异常 to 特情处理--><g id="link_车辆异常_特情处理"><path d="M671,438.4 C671,458.53 671,487.19 671,508.78 " fill="none" id="车辆异常-to-特情处理" style="stroke:#181818;stroke-width:1.0;"/><polygon fill="#181818" points="671,513.66,675,504.66,671,508.66,667,504.66,671,513.66" style="stroke:#181818;stroke-width:1.0;"/></g><!--MD5=[c58698ad1f90a21e4d3e5845e4446d37]
reverse link *end to 车辆驶出--><g id="link_*end_车辆驶出"><path d="M872.9,540 C897.71,540 946.33,540 980.65,540 " fill="none" id="*end-backto-车辆驶出" style="stroke:#181818;stroke-width:1.0;stroke-dasharray:7.0,7.0;"/><polygon fill="#181818" points="868.13,540,877.13,544,873.13,540,877.13,536,868.13,540" style="stroke:#181818;stroke-width:1.0;"/><text fill="#000000" font-family="sans-serif" font-size="13" lengthAdjust="spacing" textLength="26" x="911" y="533.5684">完成</text></g><!--MD5=[b3143a22f61f8aaad8febf7c3abdd939]
@startuml mtc-coordination

state 黑名单服务 #grey
state 计费服务 #pink 
state 车辆信息界面 #Yellow 
state 收费信息界面 #Yellow 
state CPC读卡界面 #Yellow 
state 确认完成界面 #Yellow 

state 栏杆服务 #red
state 打印服务 #lightgreen
state 读卡服务 #orange
state 特情处理 #BlueViolet

state 车辆进入 ##[dotted]Grey
state 行程获取 ##[dotted]Orange
state 车辆可通行 ##[dotted]Grey
state 车辆被识别 ##[dotted]LightBlue
state 费用已计算 ##[dotted]Pink
state 已收费 ##[dotted]LightBlue
state 已打发票 ##[dotted]lightGreen
state 已放行 ##[dotted]red
state 车辆驶出 ##[dotted]LightBlue
state 车辆异常 ##[dotted]LightCoral



[*] -right[dashed]-> 车辆进入

车辆进入 -right[dashed]-> 车辆被识别 : 确认车辆标识
车辆进入 -up-> 车辆信息界面: 请求用户识别

车辆被识别 -right[dashed]-> 车辆可通行 : 黑名单查询通过
车辆被识别 -up->黑名单服务: 合法性验证

车辆被识别 -down[dashed]-> 车辆异常 : 黑名单查询未通过

车辆可通行 -[dashed]right-> 行程获取 : 读卡成功
车辆可通行 -up-> 读卡服务 : 要求读卡
车辆可通行 -up-> CPC读卡界面 : 显示行程信息

行程获取 -right[dashed]->  费用已计算 : 计费成功
行程获取 -up->  计费服务 : 要求计费

费用已计算 -right[dashed]->  已收费 : 收费成功
费用已计算 -up-> 收费信息界面 : 请操作员收费

已收费 -[dashed]->  已打发票 : 打印发票成功
已收费 -right->  打印服务 : 启动打印

已打发票 -down[dashed]->  已放行 : 抬杆成功
已打发票 -right->  栏杆服务 : 抬杆

已放行 -down[dashed]-> 车辆驶出 : 驶出
已放行 -right-> 确认完成界面 

车辆进入 -down[dashed]-> 车辆异常 : 未能识别
车辆可通行 -down[dashed]-> 车辆异常 : 读卡失败
行程获取 -down[dashed]-> 车辆异常 : 计费失败
费用已计算 -down[dashed]-> 车辆异常 : 收费失败
已收费 -down[dashed]-> 车辆异常 : 打票失败
已打发票 -down[dashed]-> 车辆异常 : 抬杆失败

车辆异常 -[dashed]-> [*] : 处理完成
车辆异常 -down-> 特情处理

车辆驶出 -left[dashed]-> [*] : 完成





@enduml

PlantUML version 1.2022.7(Tue Aug 23 01:01:30 CST 2022)
(GPL source distribution)
Java Runtime: OpenJDK Runtime Environment
JVM: OpenJDK 64-Bit Server VM
Default Encoding: UTF-8
Language: zh
Country: CN
--></g></svg>