<?xml version="1.0" encoding="UTF-8" standalone="no"?><svg xmlns="http://www.w3.org/2000/svg" xmlns:xlink="http://www.w3.org/1999/xlink" contentStyleType="text/css" height="563px" preserveAspectRatio="none" style="width:465px;height:563px;background:#FFFFFF;" version="1.1" viewBox="0 0 465 563" width="465px" zoomAndPan="magnify"><defs/><g><line style="stroke:#181818;stroke-width:0.5;stroke-dasharray:5.0,5.0;" x1="36" x2="36" y1="81.4883" y2="482.5254"/><line style="stroke:#181818;stroke-width:0.5;stroke-dasharray:5.0,5.0;" x1="112" x2="112" y1="81.4883" y2="482.5254"/><line style="stroke:#181818;stroke-width:0.5;stroke-dasharray:5.0,5.0;" x1="181" x2="181" y1="81.4883" y2="482.5254"/><line style="stroke:#181818;stroke-width:0.5;stroke-dasharray:5.0,5.0;" x1="268" x2="268" y1="81.4883" y2="482.5254"/><line style="stroke:#181818;stroke-width:0.5;stroke-dasharray:5.0,5.0;" x1="337" x2="337" y1="81.4883" y2="482.5254"/><line style="stroke:#181818;stroke-width:0.5;stroke-dasharray:5.0,5.0;" x1="395" x2="395" y1="81.4883" y2="482.5254"/><line style="stroke:#181818;stroke-width:0.5;stroke-dasharray:5.0,5.0;" x1="446" x2="446" y1="81.4883" y2="482.5254"/><text fill="#000000" font-family="sans-serif" font-size="14" lengthAdjust="spacing" textLength="56" x="5" y="78.5352">车道业务</text><ellipse cx="36" cy="49" fill="#0000FF" rx="12" ry="12" style="stroke:#181818;stroke-width:0.5;"/><polygon fill="#181818" points="32,37,38,32,36,37,38,42,32,37" style="stroke:#181818;stroke-width:1.0;"/><text fill="#000000" font-family="sans-serif" font-size="14" lengthAdjust="spacing" textLength="56" x="5" y="495.0605">车道业务</text><ellipse cx="36" cy="514.0137" fill="#0000FF" rx="12" ry="12" style="stroke:#181818;stroke-width:0.5;"/><polygon fill="#181818" points="32,502.0137,38,497.0137,36,502.0137,38,507.0137,32,502.0137" style="stroke:#181818;stroke-width:1.0;"/><text fill="#000000" font-family="sans-serif" font-size="14" lengthAdjust="spacing" textLength="28" x="95" y="78.5352">用户</text><ellipse cx="112" cy="13.5" fill="#FFFF00" rx="8" ry="8" style="stroke:#181818;stroke-width:0.5;"/><path d="M112,21.5 L112,48.5 M99,29.5 L125,29.5 M112,48.5 L99,63.5 M112,48.5 L125,63.5 " fill="none" style="stroke:#181818;stroke-width:0.5;"/><text fill="#000000" font-family="sans-serif" font-size="14" lengthAdjust="spacing" textLength="28" x="95" y="495.0605">用户</text><ellipse cx="112" cy="506.5137" fill="#FFFF00" rx="8" ry="8" style="stroke:#181818;stroke-width:0.5;"/><path d="M112,514.5137 L112,541.5137 M99,522.5137 L125,522.5137 M112,541.5137 L99,556.5137 M112,541.5137 L125,556.5137 " fill="none" style="stroke:#181818;stroke-width:0.5;"/><rect fill="#D3D3D3" height="30.4883" rx="2.5" ry="2.5" style="stroke:#181818;stroke-width:0.5;" width="84" x="139" y="50"/><text fill="#000000" font-family="sans-serif" font-size="14" lengthAdjust="spacing" textLength="70" x="146" y="70.5352">黑名单服务</text><rect fill="#D3D3D3" height="30.4883" rx="2.5" ry="2.5" style="stroke:#181818;stroke-width:0.5;" width="84" x="139" y="481.5254"/><text fill="#000000" font-family="sans-serif" font-size="14" lengthAdjust="spacing" textLength="70" x="146" y="502.0605">黑名单服务</text><rect fill="#FFC0CB" height="30.4883" rx="2.5" ry="2.5" style="stroke:#181818;stroke-width:0.5;" width="70" x="233" y="50"/><text fill="#000000" font-family="sans-serif" font-size="14" lengthAdjust="spacing" textLength="56" x="240" y="70.5352">计费服务</text><rect fill="#FFC0CB" height="30.4883" rx="2.5" ry="2.5" style="stroke:#181818;stroke-width:0.5;" width="70" x="233" y="481.5254"/><text fill="#000000" font-family="sans-serif" font-size="14" lengthAdjust="spacing" textLength="56" x="240" y="502.0605">计费服务</text><text fill="#000000" font-family="sans-serif" font-size="14" lengthAdjust="spacing" textLength="42" x="313" y="78.5352">打印机</text><ellipse cx="337" cy="49" fill="#008000" rx="12" ry="12" style="stroke:#181818;stroke-width:0.5;"/><line style="stroke:#181818;stroke-width:0.5;" x1="325" x2="349" y1="63" y2="63"/><text fill="#000000" font-family="sans-serif" font-size="14" lengthAdjust="spacing" textLength="42" x="313" y="495.0605">打印机</text><ellipse cx="337" cy="514.0137" fill="#008000" rx="12" ry="12" style="stroke:#181818;stroke-width:0.5;"/><line style="stroke:#181818;stroke-width:0.5;" x1="325" x2="349" y1="528.0137" y2="528.0137"/><text fill="#000000" font-family="sans-serif" font-size="14" lengthAdjust="spacing" textLength="42" x="371" y="78.5352">读卡器</text><ellipse cx="395" cy="49" fill="#FFA500" rx="12" ry="12" style="stroke:#181818;stroke-width:0.5;"/><line style="stroke:#181818;stroke-width:0.5;" x1="383" x2="407" y1="63" y2="63"/><text fill="#000000" font-family="sans-serif" font-size="14" lengthAdjust="spacing" textLength="42" x="371" y="495.0605">读卡器</text><ellipse cx="395" cy="514.0137" fill="#FFA500" rx="12" ry="12" style="stroke:#181818;stroke-width:0.5;"/><line style="stroke:#181818;stroke-width:0.5;" x1="383" x2="407" y1="528.0137" y2="528.0137"/><text fill="#000000" font-family="sans-serif" font-size="14" lengthAdjust="spacing" textLength="28" x="429" y="78.5352">栏杆</text><ellipse cx="446" cy="49" fill="#FF0000" rx="12" ry="12" style="stroke:#181818;stroke-width:0.5;"/><line style="stroke:#181818;stroke-width:0.5;" x1="434" x2="458" y1="63" y2="63"/><text fill="#000000" font-family="sans-serif" font-size="14" lengthAdjust="spacing" textLength="28" x="429" y="495.0605">栏杆</text><ellipse cx="446" cy="514.0137" fill="#FF0000" rx="12" ry="12" style="stroke:#181818;stroke-width:0.5;"/><line style="stroke:#181818;stroke-width:0.5;" x1="434" x2="458" y1="528.0137" y2="528.0137"/><polygon fill="#181818" points="100,108.7988,110,112.7988,100,116.7988,104,112.7988" style="stroke:#181818;stroke-width:1.0;"/><line style="stroke:#181818;stroke-width:1.0;" x1="36" x2="106" y1="112.7988" y2="112.7988"/><text fill="#000000" font-family="sans-serif" font-size="13" lengthAdjust="spacing" textLength="52" x="43" y="108.0566">确认车牌</text><polygon fill="#181818" points="47,138.1094,37,142.1094,47,146.1094,43,142.1094" style="stroke:#181818;stroke-width:1.0;"/><line style="stroke:#181818;stroke-width:1.0;stroke-dasharray:2.0,2.0;" x1="41" x2="111" y1="142.1094" y2="142.1094"/><text fill="#000000" font-family="sans-serif" font-size="13" lengthAdjust="spacing" textLength="26" x="53" y="137.3672">确认</text><polygon fill="#181818" points="169,167.4199,179,171.4199,169,175.4199,173,171.4199" style="stroke:#181818;stroke-width:1.0;"/><line style="stroke:#181818;stroke-width:1.0;" x1="36" x2="175" y1="171.4199" y2="171.4199"/><text fill="#000000" font-family="sans-serif" font-size="13" lengthAdjust="spacing" textLength="78" x="43" y="166.6777">是否在黑名单</text><polygon fill="#181818" points="47,196.7305,37,200.7305,47,204.7305,43,200.7305" style="stroke:#181818;stroke-width:1.0;"/><line style="stroke:#181818;stroke-width:1.0;stroke-dasharray:2.0,2.0;" x1="41" x2="180" y1="200.7305" y2="200.7305"/><text fill="#000000" font-family="sans-serif" font-size="13" lengthAdjust="spacing" textLength="13" x="53" y="195.9883">否</text><polygon fill="#181818" points="383,226.041,393,230.041,383,234.041,387,230.041" style="stroke:#181818;stroke-width:1.0;"/><line style="stroke:#181818;stroke-width:1.0;" x1="36" x2="389" y1="230.041" y2="230.041"/><text fill="#000000" font-family="sans-serif" font-size="13" lengthAdjust="spacing" textLength="26" x="43" y="225.2988">读卡</text><polygon fill="#181818" points="47,255.3516,37,259.3516,47,263.3516,43,259.3516" style="stroke:#181818;stroke-width:1.0;"/><line style="stroke:#181818;stroke-width:1.0;stroke-dasharray:2.0,2.0;" x1="41" x2="394" y1="259.3516" y2="259.3516"/><text fill="#000000" font-family="sans-serif" font-size="13" lengthAdjust="spacing" textLength="52" x="53" y="254.6094">卡内数据</text><polygon fill="#181818" points="256,284.6621,266,288.6621,256,292.6621,260,288.6621" style="stroke:#181818;stroke-width:1.0;"/><line style="stroke:#181818;stroke-width:1.0;" x1="36" x2="262" y1="288.6621" y2="288.6621"/><text fill="#000000" font-family="sans-serif" font-size="13" lengthAdjust="spacing" textLength="52" x="43" y="283.9199">费用计算</text><polygon fill="#181818" points="47,313.9727,37,317.9727,47,321.9727,43,317.9727" style="stroke:#181818;stroke-width:1.0;"/><line style="stroke:#181818;stroke-width:1.0;stroke-dasharray:2.0,2.0;" x1="41" x2="267" y1="317.9727" y2="317.9727"/><text fill="#000000" font-family="sans-serif" font-size="13" lengthAdjust="spacing" textLength="52" x="53" y="313.2305">计算结果</text><polygon fill="#181818" points="100,343.2832,110,347.2832,100,351.2832,104,347.2832" style="stroke:#181818;stroke-width:1.0;"/><line style="stroke:#181818;stroke-width:1.0;" x1="36" x2="106" y1="347.2832" y2="347.2832"/><text fill="#000000" font-family="sans-serif" font-size="13" lengthAdjust="spacing" textLength="52" x="43" y="342.541">按价收费</text><polygon fill="#181818" points="47,372.5938,37,376.5938,47,380.5938,43,376.5938" style="stroke:#181818;stroke-width:1.0;"/><line style="stroke:#181818;stroke-width:1.0;" x1="41" x2="111" y1="376.5938" y2="376.5938"/><text fill="#000000" font-family="sans-serif" font-size="13" lengthAdjust="spacing" textLength="52" x="53" y="371.8516">收费完成</text><polygon fill="#181818" points="325,401.9043,335,405.9043,325,409.9043,329,405.9043" style="stroke:#181818;stroke-width:1.0;"/><line style="stroke:#181818;stroke-width:1.0;" x1="36" x2="331" y1="405.9043" y2="405.9043"/><text fill="#000000" font-family="sans-serif" font-size="13" lengthAdjust="spacing" textLength="52" x="43" y="401.1621">打印发票</text><polygon fill="#181818" points="434,431.2148,444,435.2148,434,439.2148,438,435.2148" style="stroke:#181818;stroke-width:1.0;"/><line style="stroke:#181818;stroke-width:1.0;" x1="36" x2="440" y1="435.2148" y2="435.2148"/><text fill="#000000" font-family="sans-serif" font-size="13" lengthAdjust="spacing" textLength="26" x="43" y="430.4727">抬杆</text><polygon fill="#181818" points="47,460.5254,37,464.5254,47,468.5254,43,464.5254" style="stroke:#181818;stroke-width:1.0;"/><line style="stroke:#181818;stroke-width:1.0;stroke-dasharray:2.0,2.0;" x1="41" x2="445" y1="464.5254" y2="464.5254"/><text fill="#000000" font-family="sans-serif" font-size="13" lengthAdjust="spacing" textLength="26" x="53" y="459.7832">完成</text><!--MD5=[55c621026e8b109e52267e93b1bb7f35]
@startuml mtc-seq

control 车道业务 as bizLogic #blue
actor 用户 as user #yellow
participant 黑名单服务 as blservice #lightGrey
participant 计费服务 as biservice #pink
entity 打印机 as printer #green
entity 读卡器 as reader #Orange
entity 栏杆 as braker #red

bizLogic -> user : 确认车牌
user- -> bizLogic: 确认
bizLogic -> blservice : 是否在黑名单
blservice - -> bizLogic : 否
bizLogic -> reader : 读卡
reader - -> bizLogic : 卡内数据

bizLogic -> biservice : 费用计算
biservice - -> bizLogic : 计算结果

bizLogic -> user : 按价收费
user ->  bizLogic : 收费完成

bizLogic -> printer : 打印发票
bizLogic -> braker : 抬杆
braker - -> bizLogic : 完成

@end

PlantUML version 1.2022.7(Tue Aug 23 01:01:30 CST 2022)
(GPL source distribution)
Java Runtime: OpenJDK Runtime Environment
JVM: OpenJDK 64-Bit Server VM
Default Encoding: UTF-8
Language: zh
Country: CN
--></g></svg>