<?xml version="1.0" encoding="us-ascii" standalone="no"?><svg xmlns="http://www.w3.org/2000/svg" xmlns:xlink="http://www.w3.org/1999/xlink" contentStyleType="text/css" height="444px" preserveAspectRatio="none" style="width:900px;height:444px;background:#FFFFFF;" version="1.1" viewBox="0 0 900 444" width="900px" zoomAndPan="magnify"><defs/><g><g id="&#34892;&#31243;&#33719;&#21462;"><rect fill="#FFA500" height="50" rx="12.5" ry="12.5" style="stroke:#181818;stroke-width:0.5;" width="76" x="415" y="7"/><line style="stroke:#181818;stroke-width:0.5;" x1="415" x2="491" y1="33.2969" y2="33.2969"/><text fill="#000000" font-family="sans-serif" font-size="14" lengthAdjust="spacing" textLength="56" x="425" y="24.9951">&#34892;&#31243;&#33719;&#21462;</text></g><g id="&#36710;&#36742;&#21487;&#36890;&#34892;"><rect fill="#808080" height="50" rx="12.5" ry="12.5" style="stroke:#181818;stroke-width:0.5;" width="90" x="236" y="7"/><line style="stroke:#181818;stroke-width:0.5;" x1="236" x2="326" y1="33.2969" y2="33.2969"/><text fill="#000000" font-family="sans-serif" font-size="14" lengthAdjust="spacing" textLength="70" x="246" y="24.9951">&#36710;&#36742;&#21487;&#36890;&#34892;</text></g><g id="&#36710;&#36742;&#34987;&#35782;&#21035;"><rect fill="#ADD8E6" height="50" rx="12.5" ry="12.5" style="stroke:#181818;stroke-width:0.5;" width="90" x="18" y="7"/><line style="stroke:#181818;stroke-width:0.5;" x1="18" x2="108" y1="33.2969" y2="33.2969"/><text fill="#000000" font-family="sans-serif" font-size="14" lengthAdjust="spacing" textLength="70" x="28" y="24.9951">&#36710;&#36742;&#34987;&#35782;&#21035;</text></g><g id="&#36153;&#29992;&#24050;&#35745;&#31639;"><rect fill="#FFC0CB" height="50" rx="12.5" ry="12.5" style="stroke:#181818;stroke-width:0.5;" width="90" x="580" y="7"/><line style="stroke:#181818;stroke-width:0.5;" x1="580" x2="670" y1="33.2969" y2="33.2969"/><text fill="#000000" font-family="sans-serif" font-size="14" lengthAdjust="spacing" textLength="70" x="590" y="24.9951">&#36153;&#29992;&#24050;&#35745;&#31639;</text></g><g id="&#24050;&#25910;&#36153;"><rect fill="#ADD8E6" height="50" rx="12.5" ry="12.5" style="stroke:#181818;stroke-width:0.5;" width="62" x="759" y="7"/><line style="stroke:#181818;stroke-width:0.5;" x1="759" x2="821" y1="33.2969" y2="33.2969"/><text fill="#000000" font-family="sans-serif" font-size="14" lengthAdjust="spacing" textLength="42" x="769" y="24.9951">&#24050;&#25910;&#36153;</text></g><g id="&#24050;&#25171;&#21457;&#31080;"><rect fill="#90EE90" height="50" rx="12.5" ry="12.5" style="stroke:#181818;stroke-width:0.5;" width="76" x="790" y="134"/><line style="stroke:#181818;stroke-width:0.5;" x1="790" x2="866" y1="160.2969" y2="160.2969"/><text fill="#000000" font-family="sans-serif" font-size="14" lengthAdjust="spacing" textLength="56" x="800" y="151.9951">&#24050;&#25171;&#21457;&#31080;</text></g><g id="&#24050;&#25918;&#34892;"><rect fill="#FF0000" height="50" rx="12.5" ry="12.5" style="stroke:#181818;stroke-width:0.5;" width="62" x="817" y="261"/><line style="stroke:#181818;stroke-width:0.5;" x1="817" x2="879" y1="287.2969" y2="287.2969"/><text fill="#000000" font-family="sans-serif" font-size="14" lengthAdjust="spacing" textLength="42" x="827" y="278.9951">&#24050;&#25918;&#34892;</text></g><g id="&#36710;&#36742;&#39542;&#20986;"><rect fill="#ADD8E6" height="50" rx="12.5" ry="12.5" style="stroke:#181818;stroke-width:0.5;" width="76" x="787" y="388"/><line style="stroke:#181818;stroke-width:0.5;" x1="787" x2="863" y1="414.2969" y2="414.2969"/><text fill="#000000" font-family="sans-serif" font-size="14" lengthAdjust="spacing" textLength="56" x="797" y="405.9951">&#36710;&#36742;&#39542;&#20986;</text></g><g id="&#36710;&#36742;&#24322;&#24120;"><rect fill="#F08080" height="50" rx="12.5" ry="12.5" style="stroke:#181818;stroke-width:0.5;" width="76" x="424" y="261"/><line style="stroke:#181818;stroke-width:0.5;" x1="424" x2="500" y1="287.2969" y2="287.2969"/><text fill="#000000" font-family="sans-serif" font-size="14" lengthAdjust="spacing" textLength="56" x="434" y="278.9951">&#36710;&#36742;&#24322;&#24120;</text></g><ellipse cx="18" cy="286" fill="#181818" rx="10" ry="10" style="stroke:none;stroke-width:1.0;"/><g id="&#36710;&#36742;&#36827;&#20837;"><rect fill="#F1F1F1" height="50" rx="12.5" ry="12.5" style="stroke:#181818;stroke-width:0.5;" width="76" x="7" y="134"/><line style="stroke:#181818;stroke-width:0.5;" x1="7" x2="83" y1="160.2969" y2="160.2969"/><text fill="#000000" font-family="sans-serif" font-size="14" lengthAdjust="spacing" textLength="56" x="17" y="151.9951">&#36710;&#36742;&#36827;&#20837;</text></g><ellipse cx="678" cy="413" fill="none" rx="10" ry="10" style="stroke:#181818;stroke-width:1.0;"/><ellipse cx="678.5" cy="413.5" fill="#181818" rx="6" ry="6" style="stroke:none;stroke-width:1.0;"/><!--reverse link ???? to *start*--><g id="link_&#36710;&#36742;&#36827;&#20837;_*start*"><path d="M38.69,189.21 C32.61,217.38 23.77,258.3 19.91,276.14 " fill="none" id="&#36710;&#36742;&#36827;&#20837;-backto-*start*" style="stroke:#181818;stroke-width:1.0;"/><polygon fill="#181818" points="39.79,184.1,33.9771,192.0505,38.7326,188.9869,41.7962,193.7424,39.79,184.1" style="stroke:#181818;stroke-width:1.0;"/></g><!--reverse link ????? to ????--><g id="link_&#36710;&#36742;&#34987;&#35782;&#21035;_&#36710;&#36742;&#36827;&#20837;"><path d="M52.9,62.02 C50.53,70.02 48.31,78.76 47,87 C44.53,102.47 44.02,120.06 44.13,133.86 " fill="none" id="&#36710;&#36742;&#34987;&#35782;&#21035;-backto-&#36710;&#36742;&#36827;&#20837;" style="stroke:#181818;stroke-width:1.0;"/><polygon fill="#181818" points="54.39,57.15,47.9217,64.577,52.9206,61.9292,55.5684,66.9281,54.39,57.15" style="stroke:#181818;stroke-width:1.0;"/><text fill="#000000" font-family="sans-serif" font-size="13" lengthAdjust="spacing" textLength="78" x="48" y="100.0669">&#30830;&#35748;&#36710;&#36742;&#26631;&#35782;</text></g><!--link ????? to ?????--><g id="link_&#36710;&#36742;&#34987;&#35782;&#21035;_&#36710;&#36742;&#21487;&#36890;&#34892;"><path d="M108.17,32 C143.83,32 193.56,32 230.53,32 " fill="none" id="&#36710;&#36742;&#34987;&#35782;&#21035;-to-&#36710;&#36742;&#21487;&#36890;&#34892;" style="stroke:#181818;stroke-width:1.0;"/><polygon fill="#181818" points="235.89,32,226.89,28,230.89,32,226.89,36,235.89,32" style="stroke:#181818;stroke-width:1.0;"/><text fill="#000000" font-family="sans-serif" font-size="13" lengthAdjust="spacing" textLength="91" x="126.5" y="25.0669">&#40657;&#21517;&#21333;&#26597;&#35810;&#36890;&#36807;</text></g><!--link ????? to ????--><g id="link_&#36710;&#36742;&#34987;&#35782;&#21035;_&#36710;&#36742;&#24322;&#24120;"><path d="M94.03,57.19 C105.71,66.41 119.05,77.09 131,87 C181.68,129.04 187.66,148.3 243,184 C300.37,221.01 373.51,251.85 419.05,269.36 " fill="none" id="&#36710;&#36742;&#34987;&#35782;&#21035;-to-&#36710;&#36742;&#24322;&#24120;" style="stroke:#181818;stroke-width:1.0;"/><polygon fill="#181818" points="423.91,271.22,416.9315,264.2701,419.2396,269.4347,414.075,271.7427,423.91,271.22" style="stroke:#181818;stroke-width:1.0;"/><text fill="#000000" font-family="sans-serif" font-size="13" lengthAdjust="spacing" textLength="104" x="244" y="163.5669">&#40657;&#21517;&#21333;&#26597;&#35810;&#26410;&#36890;&#36807;</text></g><!--link ????? to ????--><g id="link_&#36710;&#36742;&#21487;&#36890;&#34892;_&#34892;&#31243;&#33719;&#21462;"><path d="M326.19,32 C352.04,32 384.29,32 409.8,32 " fill="none" id="&#36710;&#36742;&#21487;&#36890;&#34892;-to-&#34892;&#31243;&#33719;&#21462;" style="stroke:#181818;stroke-width:1.0;"/><polygon fill="#181818" points="414.8,32,405.8,28,409.8,32,405.8,36,414.8,32" style="stroke:#181818;stroke-width:1.0;"/><text fill="#000000" font-family="sans-serif" font-size="13" lengthAdjust="spacing" textLength="52" x="344.5" y="25.0669">&#35835;&#21345;&#25104;&#21151;</text></g><!--link ???? to ?????--><g id="link_&#34892;&#31243;&#33719;&#21462;_&#36153;&#29992;&#24050;&#35745;&#31639;"><path d="M491.17,32 C515.76,32 548,32 574.67,32 " fill="none" id="&#34892;&#31243;&#33719;&#21462;-to-&#36153;&#29992;&#24050;&#35745;&#31639;" style="stroke:#181818;stroke-width:1.0;"/><polygon fill="#181818" points="579.92,32,570.92,28,574.92,32,570.92,36,579.92,32" style="stroke:#181818;stroke-width:1.0;"/><text fill="#000000" font-family="sans-serif" font-size="13" lengthAdjust="spacing" textLength="52" x="509.5" y="25.0669">&#35745;&#36153;&#25104;&#21151;</text></g><!--link ????? to ???--><g id="link_&#36153;&#29992;&#24050;&#35745;&#31639;_&#24050;&#25910;&#36153;"><path d="M670.09,32 C696.37,32 729.07,32 753.68,32 " fill="none" id="&#36153;&#29992;&#24050;&#35745;&#31639;-to-&#24050;&#25910;&#36153;" style="stroke:#181818;stroke-width:1.0;"/><polygon fill="#181818" points="758.81,32,749.81,28,753.81,32,749.81,36,758.81,32" style="stroke:#181818;stroke-width:1.0;"/><text fill="#000000" font-family="sans-serif" font-size="13" lengthAdjust="spacing" textLength="52" x="688.5" y="25.0669">&#25910;&#36153;&#25104;&#21151;</text></g><!--link ??? to ????--><g id="link_&#24050;&#25910;&#36153;_&#24050;&#25171;&#21457;&#31080;"><path d="M797.33,57.1 C803.58,77.68 812.59,107.33 819.23,129.16 " fill="none" id="&#24050;&#25910;&#36153;-to-&#24050;&#25171;&#21457;&#31080;" style="stroke:#181818;stroke-width:1.0;"/><polygon fill="#181818" points="820.7,133.97,821.9051,124.1951,819.2436,129.1868,814.252,126.5253,820.7,133.97" style="stroke:#181818;stroke-width:1.0;"/><text fill="#000000" font-family="sans-serif" font-size="13" lengthAdjust="spacing" textLength="78" x="812" y="100.0669">&#25171;&#21360;&#21457;&#31080;&#25104;&#21151;</text></g><!--link ???? to ???--><g id="link_&#24050;&#25171;&#21457;&#31080;_&#24050;&#25918;&#34892;"><path d="M831.86,184.1 C835.13,204.59 839.85,234.08 843.34,255.88 " fill="none" id="&#24050;&#25171;&#21457;&#31080;-to-&#24050;&#25918;&#34892;" style="stroke:#181818;stroke-width:1.0;"/><polygon fill="#181818" points="844.16,260.97,846.6932,251.4525,843.3728,256.0324,838.793,252.712,844.16,260.97" style="stroke:#181818;stroke-width:1.0;"/><text fill="#000000" font-family="sans-serif" font-size="13" lengthAdjust="spacing" textLength="52" x="840" y="227.0669">&#25260;&#26438;&#25104;&#21151;</text></g><!--link ??? to ????--><g id="link_&#24050;&#25918;&#34892;_&#36710;&#36742;&#39542;&#20986;"><path d="M843.57,311.1 C839.79,331.59 834.37,361.08 830.36,382.88 " fill="none" id="&#24050;&#25918;&#34892;-to-&#36710;&#36742;&#39542;&#20986;" style="stroke:#181818;stroke-width:1.0;"/><polygon fill="#181818" points="829.42,387.97,834.9717,379.835,830.3182,383.0513,827.1018,378.3979,829.42,387.97" style="stroke:#181818;stroke-width:1.0;"/><text fill="#000000" font-family="sans-serif" font-size="13" lengthAdjust="spacing" textLength="26" x="838" y="354.0669">&#39542;&#20986;</text></g><!--link ???? to ????--><g id="link_&#36710;&#36742;&#36827;&#20837;_&#36710;&#36742;&#24322;&#24120;"><path d="M48.2,184.14 C51.61,199.95 58.63,219.69 73,231 C125.94,272.64 328.85,282.17 418.72,284.35 " fill="none" id="&#36710;&#36742;&#36827;&#20837;-to-&#36710;&#36742;&#24322;&#24120;" style="stroke:#181818;stroke-width:1.0;"/><polygon fill="#181818" points="423.96,284.47,415.0538,280.2654,418.9613,284.3557,414.8709,288.2633,423.96,284.47" style="stroke:#181818;stroke-width:1.0;"/><text fill="#000000" font-family="sans-serif" font-size="13" lengthAdjust="spacing" textLength="52" x="74" y="227.0669">&#26410;&#33021;&#35782;&#21035;</text></g><!--link ????? to ????--><g id="link_&#36710;&#36742;&#21487;&#36890;&#34892;_&#36710;&#36742;&#24322;&#24120;"><path d="M298.36,57.16 C332.01,104.01 405.95,206.97 441.77,256.83 " fill="none" id="&#36710;&#36742;&#21487;&#36890;&#34892;-to-&#36710;&#36742;&#24322;&#24120;" style="stroke:#181818;stroke-width:1.0;"/><polygon fill="#181818" points="444.7,260.91,442.6981,251.2667,441.783,256.8491,436.2007,255.9339,444.7,260.91" style="stroke:#181818;stroke-width:1.0;"/><text fill="#000000" font-family="sans-serif" font-size="13" lengthAdjust="spacing" textLength="52" x="388" y="163.5669">&#35835;&#21345;&#22833;&#36133;</text></g><!--link ???? to ????--><g id="link_&#34892;&#31243;&#33719;&#21462;_&#36710;&#36742;&#24322;&#24120;"><path d="M453.86,57.16 C455.52,103.64 459.15,205.32 460.95,255.62 " fill="none" id="&#34892;&#31243;&#33719;&#21462;-to-&#36710;&#36742;&#24322;&#24120;" style="stroke:#181818;stroke-width:1.0;"/><polygon fill="#181818" points="461.14,260.91,464.8032,251.7677,460.9544,255.9134,456.8087,252.0647,461.14,260.91" style="stroke:#181818;stroke-width:1.0;"/><text fill="#000000" font-family="sans-serif" font-size="13" lengthAdjust="spacing" textLength="52" x="460" y="163.5669">&#35745;&#36153;&#22833;&#36133;</text></g><!--link ????? to ????--><g id="link_&#36153;&#29992;&#24050;&#35745;&#31639;_&#36710;&#36742;&#24322;&#24120;"><path d="M609.37,57.16 C579.13,103.92 512.74,206.56 480.41,256.53 " fill="none" id="&#36153;&#29992;&#24050;&#35745;&#31639;-to-&#36710;&#36742;&#24322;&#24120;" style="stroke:#181818;stroke-width:1.0;"/><polygon fill="#181818" points="477.58,260.91,485.8245,255.5222,480.2939,256.7106,479.1055,251.18,477.58,260.91" style="stroke:#181818;stroke-width:1.0;"/><text fill="#000000" font-family="sans-serif" font-size="13" lengthAdjust="spacing" textLength="52" x="559" y="163.5669">&#25910;&#36153;&#22833;&#36133;</text></g><!--link ??? to ????--><g id="link_&#24050;&#25910;&#36153;_&#36710;&#36742;&#24322;&#24120;"><path d="M765.43,57.07 C733.29,88.01 674.63,142.69 620,184 C582.48,212.38 536.97,240.9 504.45,260.36 " fill="none" id="&#24050;&#25910;&#36153;-to-&#36710;&#36742;&#24322;&#24120;" style="stroke:#181818;stroke-width:1.0;"/><polygon fill="#181818" points="500.15,262.93,509.9283,261.7535,504.4438,260.3681,505.8292,254.8835,500.15,262.93" style="stroke:#181818;stroke-width:1.0;"/><text fill="#000000" font-family="sans-serif" font-size="13" lengthAdjust="spacing" textLength="52" x="680" y="163.5669">&#25171;&#31080;&#22833;&#36133;</text></g><!--link ???? to ????--><g id="link_&#24050;&#25171;&#21457;&#31080;_&#36710;&#36742;&#24322;&#24120;"><path d="M798.09,184.11 C777.32,199.7 748.39,219.2 720,231 C648.1,260.89 557.8,274.9 505.32,280.94 " fill="none" id="&#24050;&#25171;&#21457;&#31080;-to-&#36710;&#36742;&#24322;&#24120;" style="stroke:#181818;stroke-width:1.0;"/><polygon fill="#181818" points="500.05,281.53,509.4395,284.5028,505.0189,280.9731,508.5485,276.5525,500.05,281.53" style="stroke:#181818;stroke-width:1.0;"/><text fill="#000000" font-family="sans-serif" font-size="13" lengthAdjust="spacing" textLength="52" x="752" y="227.0669">&#25260;&#26438;&#22833;&#36133;</text></g><!--link ???? to *end*--><g id="link_&#36710;&#36742;&#24322;&#24120;_*end*"><path d="M500.12,309.06 C549.55,337.67 633.22,386.08 665.12,404.55 " fill="none" id="&#36710;&#36742;&#24322;&#24120;-to-*end*" style="stroke:#181818;stroke-width:1.0;"/><polygon fill="#181818" points="669.78,407.24,663.987,399.275,665.4503,404.7393,659.9859,406.2026,669.78,407.24" style="stroke:#181818;stroke-width:1.0;"/><text fill="#000000" font-family="sans-serif" font-size="13" lengthAdjust="spacing" textLength="52" x="584" y="354.0669">&#22788;&#29702;&#23436;&#25104;</text></g><!--reverse link *end* to ????--><g id="link_*end*_&#36710;&#36742;&#39542;&#20986;"><path d="M693.25,413 C715.21,413 756.45,413 786.96,413 " fill="none" id="*end*-backto-&#36710;&#36742;&#39542;&#20986;" style="stroke:#181818;stroke-width:1.0;"/><polygon fill="#181818" points="688.1,413,697.1,417,693.1,413,697.1,409,688.1,413" style="stroke:#181818;stroke-width:1.0;"/><text fill="#000000" font-family="sans-serif" font-size="13" lengthAdjust="spacing" textLength="26" x="724.5" y="406.0669">&#23436;&#25104;</text></g><!--SRC=[TPFBJi9058RtynIJT6VI5-Z2XIxScEZUk22X8h4ffa2CE-E5co0GK1ClmH9gK4nHGm15u6cc7Tx2cKxlXQwcv_-_pfd_JDEPM4Q4M2sRtMjyCqBLEyZjA34v8O8qawQlU9P3rVxYx87O8BUbYAS13RTxk9z3XHxajfE9myo6b7NXmO_PxABHDzPLKx-7t6vIFh8rKZMQG-A8ObGgDb2rRcfTo4bK9RkAif-SMSqeOZpGo-9jYFA_InfXf_WxH-EnhMwcb9W4wBEtjW_vx36_xXne_eYkDE1_2UhkWGLegZhMEwnklEH97O2mYrVeVYxkPId0nQIEQXLKkJLQ6kwtQNsUZtuWdZgHFPwT8W8RJ-ys3y8RKTO_OW7Y_WHLLADGGwKMyVj5jzt8-0YcgwHeOs7P0xtP2f0jRCGJUCVd3ffOoRhooLwTrW8M9mZV5I1KwSDupldzJ0ccPjyCafgr0A7nBa-OH8elfcmAqL2NConPrFd20oqKx0h0ojG1mfckQCmAqMPyeQvm5niaFPyx4cWOi2Ar0H0GwTpe3oD0rBaqQpcabqdq810oBua76S_77FJv1m00]--></g></svg>