<?xml version="1.0" encoding="UTF-8" standalone="no"?><svg xmlns="http://www.w3.org/2000/svg" xmlns:xlink="http://www.w3.org/1999/xlink" contentScriptType="application/ecmascript" contentStyleType="text/css" height="424px" preserveAspectRatio="none" style="width:739px;height:424px;background:#FFFFFF;" version="1.1" viewBox="0 0 739 424" width="739px" zoomAndPan="magnify"><defs><filter height="300%" id="fmm98m1auxozf" width="300%" x="-1" y="-1"><feGaussianBlur result="blurOut" stdDeviation="2.0"/><feColorMatrix in="blurOut" result="blurOut2" type="matrix" values="0 0 0 0 0 0 0 0 0 0 0 0 0 0 0 0 0 0 .4 0"/><feOffset dx="4.0" dy="4.0" in="blurOut2" result="blurOut3"/><feBlend in="SourceGraphic" in2="blurOut3" mode="normal"/></filter></defs><g><!--MD5=[ab319f333c9892558208101aa273c29a]
entity TollingService--><rect fill="#FEFECE" filter="url(#fmm98m1auxozf)" height="46.4883" style="stroke:#A80036;stroke-width:1.5;" width="136" x="301.5" y="22"/><rect fill="#FEFECE" height="10" style="stroke:#A80036;stroke-width:1.5;" width="15" x="417.5" y="27"/><rect fill="#FEFECE" height="2" style="stroke:#A80036;stroke-width:1.5;" width="4" x="415.5" y="29"/><rect fill="#FEFECE" height="2" style="stroke:#A80036;stroke-width:1.5;" width="4" x="415.5" y="33"/><text fill="#000000" font-family="sans-serif" font-size="14" lengthAdjust="spacing" textLength="96" x="316.5" y="55.5352">TollingService</text><!--MD5=[3d841d7d9067afef1047d2c2649b6b63]
entity RecognizingService--><rect fill="#FEFECE" filter="url(#fmm98m1auxozf)" height="46.4883" style="stroke:#A80036;stroke-width:1.5;" width="173" x="7" y="231.5"/><rect fill="#FEFECE" height="10" style="stroke:#A80036;stroke-width:1.5;" width="15" x="160" y="236.5"/><rect fill="#FEFECE" height="2" style="stroke:#A80036;stroke-width:1.5;" width="4" x="158" y="238.5"/><rect fill="#FEFECE" height="2" style="stroke:#A80036;stroke-width:1.5;" width="4" x="158" y="242.5"/><text fill="#000000" font-family="sans-serif" font-size="14" lengthAdjust="spacing" textLength="133" x="22" y="265.0352">RecognizingService</text><!--MD5=[87318cf21f9209ca836523233f345fcb]
entity BillingService--><rect fill="#FEFECE" filter="url(#fmm98m1auxozf)" height="46.4883" style="stroke:#A80036;stroke-width:1.5;" width="130" x="215.5" y="231.5"/><rect fill="#FEFECE" height="10" style="stroke:#A80036;stroke-width:1.5;" width="15" x="325.5" y="236.5"/><rect fill="#FEFECE" height="2" style="stroke:#A80036;stroke-width:1.5;" width="4" x="323.5" y="238.5"/><rect fill="#FEFECE" height="2" style="stroke:#A80036;stroke-width:1.5;" width="4" x="323.5" y="242.5"/><text fill="#000000" font-family="sans-serif" font-size="14" lengthAdjust="spacing" textLength="90" x="230.5" y="265.0352">BillingService</text><!--MD5=[24efb727bac8b98c33df6be605724918]
entity ValidatingService--><rect fill="#FEFECE" filter="url(#fmm98m1auxozf)" height="46.4883" style="stroke:#A80036;stroke-width:1.5;" width="157" x="381" y="231.5"/><rect fill="#FEFECE" height="10" style="stroke:#A80036;stroke-width:1.5;" width="15" x="518" y="236.5"/><rect fill="#FEFECE" height="2" style="stroke:#A80036;stroke-width:1.5;" width="4" x="516" y="238.5"/><rect fill="#FEFECE" height="2" style="stroke:#A80036;stroke-width:1.5;" width="4" x="516" y="242.5"/><text fill="#000000" font-family="sans-serif" font-size="14" lengthAdjust="spacing" textLength="117" x="396" y="265.0352">ValidatingService</text><!--MD5=[eb8d006de03d20b3d082ca9221e45c60]
entity DeviceController--><rect fill="#FEFECE" filter="url(#fmm98m1auxozf)" height="46.4883" style="stroke:#A80036;stroke-width:1.5;" width="154" x="573.5" y="231.5"/><rect fill="#FEFECE" height="10" style="stroke:#A80036;stroke-width:1.5;" width="15" x="707.5" y="236.5"/><rect fill="#FEFECE" height="2" style="stroke:#A80036;stroke-width:1.5;" width="4" x="705.5" y="238.5"/><rect fill="#FEFECE" height="2" style="stroke:#A80036;stroke-width:1.5;" width="4" x="705.5" y="242.5"/><text fill="#000000" font-family="sans-serif" font-size="14" lengthAdjust="spacing" textLength="114" x="588.5" y="265.0352">DeviceController</text><!--MD5=[e619affa3c03b5e1ee5827a66da60b9c]
entity TollingClient--><ellipse cx="238.5" cy="14" fill="#FEFECE" filter="url(#fmm98m1auxozf)" rx="8" ry="8" style="stroke:#A80036;stroke-width:1.5;"/><path d="M238.5,22 L238.5,49 M225.5,30 L251.5,30 M238.5,49 L225.5,64 M238.5,49 L251.5,64 " fill="none" filter="url(#fmm98m1auxozf)" style="stroke:#A80036;stroke-width:1.5;"/><text fill="#000000" font-family="sans-serif" font-size="14" lengthAdjust="spacing" textLength="56" x="210.5" y="83.0352">车道前端</text><!--MD5=[54e6e0d4ec275c29187a05953cc2db0f]
entity RecognizingClient--><ellipse cx="93.5" cy="347" fill="#FEFECE" filter="url(#fmm98m1auxozf)" rx="8" ry="8" style="stroke:#A80036;stroke-width:1.5;"/><path d="M93.5,355 L93.5,382 M80.5,363 L106.5,363 M93.5,382 L80.5,397 M93.5,382 L106.5,397 " fill="none" filter="url(#fmm98m1auxozf)" style="stroke:#A80036;stroke-width:1.5;"/><text fill="#000000" font-family="sans-serif" font-size="14" lengthAdjust="spacing" textLength="56" x="65.5" y="416.0352">识别前端</text><!--MD5=[cc14f82ff1beff5ed090a46928d2b401]
entity BillingClient--><ellipse cx="280.5" cy="347" fill="#FEFECE" filter="url(#fmm98m1auxozf)" rx="8" ry="8" style="stroke:#A80036;stroke-width:1.5;"/><path d="M280.5,355 L280.5,382 M267.5,363 L293.5,363 M280.5,382 L267.5,397 M280.5,382 L293.5,397 " fill="none" filter="url(#fmm98m1auxozf)" style="stroke:#A80036;stroke-width:1.5;"/><text fill="#000000" font-family="sans-serif" font-size="14" lengthAdjust="spacing" textLength="56" x="252.5" y="416.0352">收费前端</text><!--MD5=[208c36898c4e0fc282c1ed41cbe36db4]
entity ValidatingClient--><ellipse cx="459.5" cy="347" fill="#FEFECE" filter="url(#fmm98m1auxozf)" rx="8" ry="8" style="stroke:#A80036;stroke-width:1.5;"/><path d="M459.5,355 L459.5,382 M446.5,363 L472.5,363 M459.5,382 L446.5,397 M459.5,382 L472.5,397 " fill="none" filter="url(#fmm98m1auxozf)" style="stroke:#A80036;stroke-width:1.5;"/><text fill="#000000" font-family="sans-serif" font-size="14" lengthAdjust="spacing" textLength="56" x="431.5" y="416.0352">验证前端</text><!--MD5=[1481f43b514325438f831f19ea58e9e2]
entity Device--><ellipse cx="650.5" cy="370" fill="#FEFECE" filter="url(#fmm98m1auxozf)" rx="12" ry="12" style="stroke:#A80036;stroke-width:1.5;"/><line style="stroke:#A80036;stroke-width:1.5;" x1="638.5" x2="662.5" y1="384" y2="384"/><text fill="#000000" font-family="sans-serif" font-size="14" lengthAdjust="spacing" textLength="56" x="622.5" y="399.5352">车道设备</text><!--MD5=[9762e67b79b719797c568dcdd43c32f7]
entity Queue--><path d="M342,145.5 L397,145.5 C402,145.5 402,158.7441 402,158.7441 C402,158.7441 402,171.9883 397,171.9883 L342,171.9883 C337,171.9883 337,158.7441 337,158.7441 C337,158.7441 337,145.5 342,145.5 " fill="#FEFECE" filter="url(#fmm98m1auxozf)" style="stroke:#A80036;stroke-width:1.5;"/><path d="M397,145.5 C392,145.5 392,158.7441 392,158.7441 C392,171.9883 397,171.9883 397,171.9883 " fill="none" style="stroke:#A80036;stroke-width:1.5;"/><text fill="#000000" font-family="sans-serif" font-size="14" lengthAdjust="spacing" textLength="45" x="342" y="164.0352">Queue</text><!--MD5=[79cf75bddaa8a5d759859336298aa07f]
link TollingClient to TollingService--><path d="M266.64,45 C276.45,45 286.26,45 296.07,45 " fill="none" id="TollingClient-to-TollingService" style="stroke:#A80036;stroke-width:1.0;stroke-dasharray:1.0,3.0;"/><rect fill="#FFFFFF" height="10" style="stroke:#A80036;stroke-width:1.5;" width="10" x="296.2" y="40"/><!--MD5=[048b47485711691defc75cbe2b290bbd]
reverse link RecognizingService to RecognizingClient--><path d="M93.5,282.78 C93.5,298.9 93.5,319.59 93.5,337.47 " fill="none" id="RecognizingService-backto-RecognizingClient" style="stroke:#A80036;stroke-width:1.0;stroke-dasharray:1.0,3.0;"/><rect fill="#FFFFFF" height="10" style="stroke:#A80036;stroke-width:1.5;" width="10" x="88.5" y="272.5"/><!--MD5=[21c7c744d2a4ec847c3cc434638bd66b]
reverse link BillingService to BillingClient--><path d="M280.5,282.78 C280.5,298.9 280.5,319.59 280.5,337.47 " fill="none" id="BillingService-backto-BillingClient" style="stroke:#A80036;stroke-width:1.0;stroke-dasharray:1.0,3.0;"/><rect fill="#FFFFFF" height="10" style="stroke:#A80036;stroke-width:1.5;" width="10" x="275.5" y="272.5"/><!--MD5=[21d001c8260f201ba34356c2b2d430b1]
reverse link ValidatingService to ValidatingClient--><path d="M459.5,282.78 C459.5,298.9 459.5,319.59 459.5,337.47 " fill="none" id="ValidatingService-backto-ValidatingClient" style="stroke:#A80036;stroke-width:1.0;stroke-dasharray:1.0,3.0;"/><rect fill="#FFFFFF" height="10" style="stroke:#A80036;stroke-width:1.5;" width="10" x="454.5" y="272.5"/><!--MD5=[a7cd347a98985575001261f65c70d089]
reverse link DeviceController to Device--><path d="M650.5,282.76 C650.5,304.18 650.5,333.66 650.5,353.92 " fill="none" id="DeviceController-backto-Device" style="stroke:#A80036;stroke-width:1.0;stroke-dasharray:1.0,3.0;"/><rect fill="#FFFFFF" height="10" style="stroke:#A80036;stroke-width:1.5;" width="10" x="645.5" y="272.5"/><!--MD5=[27565492f643dec5d561fa3983ec686d]
link TollingService to Queue--><path d="M369.5,68.03 C369.5,91.26 369.5,127 369.5,145.49 " fill="none" id="TollingService-Queue" style="stroke:#A80036;stroke-width:1.0;stroke-dasharray:7.0,7.0;"/><ellipse cx="369.5" cy="108.5375" fill="#FFFFFF" rx="10" ry="10" style="stroke:#FFFFFF;stroke-width:1.0;"/><path d="M362.4289,115.6086 A10,10 0 0 0 376.5711 115.6086" fill="none" style="stroke:#A80036;stroke-width:1.5;"/><path d="M376.5711,101.4664 A10,10 0 0 0 362.4289 101.4664" fill="none" style="stroke:#A80036;stroke-width:1.5;"/><ellipse cx="369.5" cy="108.5375" fill="#FFFFFF" rx="6" ry="6" style="stroke:#A80036;stroke-width:1.5;"/><!--MD5=[9c704389e37780a4a07074fffe66256a]
link Queue to BillingService--><path d="M357.86,171.79 C343.54,186.92 318.95,212.89 301.34,231.49 " fill="none" id="Queue-BillingService" style="stroke:#A80036;stroke-width:1.0;stroke-dasharray:7.0,7.0;"/><ellipse cx="330.8338" cy="200.3388" fill="#FFFFFF" rx="10" ry="10" style="stroke:#FFFFFF;stroke-width:1.0;"/><path d="M320.8375,200.6121 A10,10 0 0 0 331.1071 210.335" fill="none" style="stroke:#A80036;stroke-width:1.5;"/><path d="M340.83,200.0654 A10,10 0 0 0 330.5604 190.3425" fill="none" style="stroke:#A80036;stroke-width:1.5;"/><ellipse cx="330.8338" cy="200.3388" fill="#FFFFFF" rx="6" ry="6" style="stroke:#A80036;stroke-width:1.5;"/><!--MD5=[81b51169b817159e0291962ad671520f]
link Queue to RecognizingService--><path d="M336.76,170.65 C292.92,185.58 214.19,212.39 158.18,231.47 " fill="none" id="Queue-RecognizingService" style="stroke:#A80036;stroke-width:1.0;stroke-dasharray:7.0,7.0;"/><ellipse cx="252.0338" cy="199.5038" fill="#FFFFFF" rx="10" ry="10" style="stroke:#FFFFFF;stroke-width:1.0;"/><path d="M243.0606,195.0898 A10,10 0 0 0 247.6198 208.4769" fill="none" style="stroke:#A80036;stroke-width:1.5;"/><path d="M261.0069,203.9177 A10,10 0 0 0 256.4477 190.5306" fill="none" style="stroke:#A80036;stroke-width:1.5;"/><ellipse cx="252.0338" cy="199.5038" fill="#FFFFFF" rx="6" ry="6" style="stroke:#A80036;stroke-width:1.5;"/><!--MD5=[76c3155350aab31199f9c2e1d045ecbe]
link Queue to ValidatingService--><path d="M381.27,171.79 C395.75,186.92 420.62,212.89 438.43,231.49 " fill="none" id="Queue-ValidatingService" style="stroke:#A80036;stroke-width:1.0;stroke-dasharray:7.0,7.0;"/><ellipse cx="408.6013" cy="200.3388" fill="#FFFFFF" rx="10" ry="10" style="stroke:#FFFFFF;stroke-width:1.0;"/><path d="M408.3842,210.3364 A10,10 0 0 0 418.5989 200.5558" fill="none" style="stroke:#A80036;stroke-width:1.5;"/><path d="M408.8183,190.3411 A10,10 0 0 0 398.6036 200.1217" fill="none" style="stroke:#A80036;stroke-width:1.5;"/><ellipse cx="408.6013" cy="200.3388" fill="#FFFFFF" rx="6" ry="6" style="stroke:#A80036;stroke-width:1.5;"/><!--MD5=[94664e8bf53e1f17a47c4e29c398ea94]
link Queue to DeviceController--><path d="M402.01,170.37 C446.43,185.24 527.13,212.23 584.5,231.42 " fill="none" id="Queue-DeviceController" style="stroke:#A80036;stroke-width:1.0;stroke-dasharray:7.0,7.0;"/><ellipse cx="488.3988" cy="199.275" fill="#FFFFFF" rx="10" ry="10" style="stroke:#FFFFFF;stroke-width:1.0;"/><path d="M492.8614,208.224 A10,10 0 0 0 497.3478 194.8123" fill="none" style="stroke:#A80036;stroke-width:1.5;"/><path d="M483.9361,190.326 A10,10 0 0 0 479.4497 203.7377" fill="none" style="stroke:#A80036;stroke-width:1.5;"/><ellipse cx="488.3988" cy="199.275" fill="#FFFFFF" rx="6" ry="6" style="stroke:#A80036;stroke-width:1.5;"/><!--MD5=[f3f806ad60a54cc9f566391555d67807]
@startuml

component TollingService
component RecognizingService
component BillingService
component ValidatingService
component DeviceController

actor 车道前端 as TollingClient
actor 识别前端 as RecognizingClient
actor 收费前端 as BillingClient
actor 验证前端 as ValidatingClient
entity 车道设备 as Device

TollingService #~le~ TollingClient
RecognizingService #~~ RecognizingClient
BillingService #~~ BillingClient
ValidatingService #~~ ValidatingClient
DeviceController #~~ Device

queue Queue

TollingService .(0). Queue
Queue .(0). BillingService
Queue .(0). RecognizingService
Queue .(0). ValidatingService
Queue .(0). DeviceController

@enduml

PlantUML version 1.2022.1(Wed Feb 02 02:19:58 CST 2022)
(GPL source distribution)
Java Runtime: OpenJDK Runtime Environment
JVM: OpenJDK 64-Bit Server VM
Default Encoding: UTF-8
Language: zh
Country: CN
--></g></svg>