<?xml version="1.0" encoding="UTF-8" standalone="no"?><svg xmlns="http://www.w3.org/2000/svg" xmlns:xlink="http://www.w3.org/1999/xlink" contentScriptType="application/ecmascript" contentStyleType="text/css" height="486px" preserveAspectRatio="none" style="width:808px;height:486px;background:#FFFFFF;" version="1.1" viewBox="0 0 808 486" width="808px" zoomAndPan="magnify"><defs><filter height="300%" id="fvm1h5rk1blwp" width="300%" x="-1" y="-1"><feGaussianBlur result="blurOut" stdDeviation="2.0"/><feColorMatrix in="blurOut" result="blurOut2" type="matrix" values="0 0 0 0 0 0 0 0 0 0 0 0 0 0 0 0 0 0 .4 0"/><feOffset dx="4.0" dy="4.0" in="blurOut2" result="blurOut3"/><feBlend in="SourceGraphic" in2="blurOut3" mode="normal"/></filter></defs><g><line style="stroke:#A80036;stroke-width:1.0;stroke-dasharray:5.0,5.0;" x1="36" x2="36" y1="88.4883" y2="401.5938"/><line style="stroke:#A80036;stroke-width:1.0;stroke-dasharray:5.0,5.0;" x1="183" x2="183" y1="88.4883" y2="401.5938"/><line style="stroke:#A80036;stroke-width:1.0;stroke-dasharray:5.0,5.0;" x1="391.5" x2="391.5" y1="88.4883" y2="401.5938"/><line style="stroke:#A80036;stroke-width:1.0;stroke-dasharray:5.0,5.0;" x1="600.5" x2="600.5" y1="88.4883" y2="401.5938"/><line style="stroke:#A80036;stroke-width:1.0;stroke-dasharray:5.0,5.0;" x1="776" x2="776" y1="88.4883" y2="401.5938"/><text fill="#000000" font-family="sans-serif" font-size="14" lengthAdjust="spacing" textLength="56" x="5" y="85.5352">车道前端</text><ellipse cx="36" cy="15" fill="#FEFECE" filter="url(#fvm1h5rk1blwp)" rx="8" ry="8" style="stroke:#A80036;stroke-width:2.0;"/><path d="M36,23 L36,50 M23,31 L49,31 M36,50 L23,65 M36,50 L49,65 " fill="none" filter="url(#fvm1h5rk1blwp)" style="stroke:#A80036;stroke-width:2.0;"/><text fill="#000000" font-family="sans-serif" font-size="14" lengthAdjust="spacing" textLength="56" x="5" y="414.1289">车道前端</text><ellipse cx="36" cy="427.082" fill="#FEFECE" filter="url(#fvm1h5rk1blwp)" rx="8" ry="8" style="stroke:#A80036;stroke-width:2.0;"/><path d="M36,435.082 L36,462.082 M23,443.082 L49,443.082 M36,462.082 L23,477.082 M36,462.082 L49,477.082 " fill="none" filter="url(#fvm1h5rk1blwp)" style="stroke:#A80036;stroke-width:2.0;"/><rect fill="#FEFECE" filter="url(#fvm1h5rk1blwp)" height="30.4883" style="stroke:#A80036;stroke-width:1.5;" width="110" x="126" y="53"/><text fill="#000000" font-family="sans-serif" font-size="14" lengthAdjust="spacing" textLength="96" x="133" y="73.5352">TollingService</text><rect fill="#FEFECE" filter="url(#fvm1h5rk1blwp)" height="30.4883" style="stroke:#A80036;stroke-width:1.5;" width="110" x="126" y="400.5938"/><text fill="#000000" font-family="sans-serif" font-size="14" lengthAdjust="spacing" textLength="96" x="133" y="421.1289">TollingService</text><path d="M364.5,62 L419.5,62 C424.5,62 424.5,75.2441 424.5,75.2441 C424.5,75.2441 424.5,88.4883 419.5,88.4883 L364.5,88.4883 C359.5,88.4883 359.5,75.2441 359.5,75.2441 C359.5,75.2441 359.5,62 364.5,62 " fill="#FEFECE" filter="url(#fvm1h5rk1blwp)" style="stroke:#A80036;stroke-width:2.0;"/><path d="M419.5,62 C414.5,62 414.5,75.2441 414.5,75.2441 C414.5,88.4883 419.5,88.4883 419.5,88.4883 " fill="none" style="stroke:#A80036;stroke-width:2.0;"/><text fill="#000000" font-family="sans-serif" font-size="14" lengthAdjust="spacing" textLength="45" x="364.5" y="80.5352">Queue</text><path d="M364.5,400.5938 L419.5,400.5938 C424.5,400.5938 424.5,413.8379 424.5,413.8379 C424.5,413.8379 424.5,427.082 419.5,427.082 L364.5,427.082 C359.5,427.082 359.5,413.8379 359.5,413.8379 C359.5,413.8379 359.5,400.5938 364.5,400.5938 " fill="#FEFECE" filter="url(#fvm1h5rk1blwp)" style="stroke:#A80036;stroke-width:2.0;"/><path d="M419.5,400.5938 C414.5,400.5938 414.5,413.8379 414.5,413.8379 C414.5,427.082 419.5,427.082 419.5,427.082 " fill="none" style="stroke:#A80036;stroke-width:2.0;"/><text fill="#000000" font-family="sans-serif" font-size="14" lengthAdjust="spacing" textLength="45" x="364.5" y="419.1289">Queue</text><rect fill="#FEFECE" filter="url(#fvm1h5rk1blwp)" height="30.4883" style="stroke:#A80036;stroke-width:1.5;" width="147" x="525.5" y="53"/><text fill="#000000" font-family="sans-serif" font-size="14" lengthAdjust="spacing" textLength="133" x="532.5" y="73.5352">RecognizingService</text><rect fill="#FEFECE" filter="url(#fvm1h5rk1blwp)" height="30.4883" style="stroke:#A80036;stroke-width:1.5;" width="147" x="525.5" y="400.5938"/><text fill="#000000" font-family="sans-serif" font-size="14" lengthAdjust="spacing" textLength="133" x="532.5" y="421.1289">RecognizingService</text><text fill="#000000" font-family="sans-serif" font-size="14" lengthAdjust="spacing" textLength="56" x="745" y="85.5352">识别前端</text><ellipse cx="776" cy="15" fill="#FEFECE" filter="url(#fvm1h5rk1blwp)" rx="8" ry="8" style="stroke:#A80036;stroke-width:2.0;"/><path d="M776,23 L776,50 M763,31 L789,31 M776,50 L763,65 M776,50 L789,65 " fill="none" filter="url(#fvm1h5rk1blwp)" style="stroke:#A80036;stroke-width:2.0;"/><text fill="#000000" font-family="sans-serif" font-size="14" lengthAdjust="spacing" textLength="56" x="745" y="414.1289">识别前端</text><ellipse cx="776" cy="427.082" fill="#FEFECE" filter="url(#fvm1h5rk1blwp)" rx="8" ry="8" style="stroke:#A80036;stroke-width:2.0;"/><path d="M776,435.082 L776,462.082 M763,443.082 L789,443.082 M776,462.082 L763,477.082 M776,462.082 L789,477.082 " fill="none" filter="url(#fvm1h5rk1blwp)" style="stroke:#A80036;stroke-width:2.0;"/><polygon fill="#A80036" points="171,115.7988,181,119.7988,171,123.7988,175,119.7988" style="stroke:#A80036;stroke-width:1.0;"/><line style="stroke:#A80036;stroke-width:1.0;" x1="36" x2="177" y1="119.7988" y2="119.7988"/><text fill="#000000" font-family="sans-serif" font-size="13" lengthAdjust="spacing" textLength="83" x="43" y="115.0566">GET /register</text><polygon fill="#A80036" points="171,145.1094,181,149.1094,171,153.1094,175,149.1094" style="stroke:#A80036;stroke-width:1.0;"/><line style="stroke:#A80036;stroke-width:1.0;" x1="36" x2="177" y1="149.1094" y2="149.1094"/><text fill="#000000" font-family="sans-serif" font-size="13" lengthAdjust="spacing" textLength="83" x="43" y="144.3672">GET /tollings</text><polygon fill="#A80036" points="171,174.4199,181,178.4199,171,182.4199,175,178.4199" style="stroke:#A80036;stroke-width:1.0;"/><line style="stroke:#A80036;stroke-width:1.0;" x1="36" x2="177" y1="178.4199" y2="178.4199"/><text fill="#000000" font-family="sans-serif" font-size="13" lengthAdjust="spacing" textLength="123" x="43" y="173.6777">GET /start?id=xxxx</text><polygon fill="#A80036" points="380,203.7305,390,207.7305,380,211.7305,384,207.7305" style="stroke:#A80036;stroke-width:1.0;"/><line style="stroke:#A80036;stroke-width:1.0;" x1="183" x2="386" y1="207.7305" y2="207.7305"/><text fill="#000000" font-family="sans-serif" font-size="13" lengthAdjust="spacing" textLength="69" x="190" y="202.9883">start(xxxx)</text><polygon fill="#A80036" points="589,233.041,599,237.041,589,241.041,593,237.041" style="stroke:#A80036;stroke-width:1.0;"/><line style="stroke:#A80036;stroke-width:1.0;" x1="392" x2="595" y1="237.041" y2="237.041"/><text fill="#000000" font-family="sans-serif" font-size="13" lengthAdjust="spacing" textLength="69" x="399" y="232.2988">start(xxxx)</text><polygon fill="#A80036" points="612,262.3516,602,266.3516,612,270.3516,608,266.3516" style="stroke:#A80036;stroke-width:1.0;"/><line style="stroke:#A80036;stroke-width:1.0;" x1="606" x2="775" y1="266.3516" y2="266.3516"/><text fill="#000000" font-family="sans-serif" font-size="13" lengthAdjust="spacing" textLength="115" x="618" y="261.6094">GET /unconfirmed</text><polygon fill="#A80036" points="612,291.6621,602,295.6621,612,299.6621,608,295.6621" style="stroke:#A80036;stroke-width:1.0;"/><line style="stroke:#A80036;stroke-width:1.0;" x1="606" x2="775" y1="295.6621" y2="295.6621"/><text fill="#000000" font-family="sans-serif" font-size="13" lengthAdjust="spacing" textLength="151" x="618" y="290.9199">GET /confirm?id=(xxxx)</text><polygon fill="#A80036" points="403,320.9727,393,324.9727,403,328.9727,399,324.9727" style="stroke:#A80036;stroke-width:1.0;"/><line style="stroke:#A80036;stroke-width:1.0;" x1="397" x2="600" y1="324.9727" y2="324.9727"/><text fill="#000000" font-family="sans-serif" font-size="13" lengthAdjust="spacing" textLength="185" x="409" y="320.2305">recognizing_successes(xxxx)</text><polygon fill="#A80036" points="194,350.2832,184,354.2832,194,358.2832,190,354.2832" style="stroke:#A80036;stroke-width:1.0;"/><line style="stroke:#A80036;stroke-width:1.0;" x1="188" x2="391" y1="354.2832" y2="354.2832"/><text fill="#000000" font-family="sans-serif" font-size="13" lengthAdjust="spacing" textLength="185" x="200" y="349.541">recognizing_successes(xxxx)</text><polygon fill="#A80036" points="171,379.5938,181,383.5938,171,387.5938,175,383.5938" style="stroke:#A80036;stroke-width:1.0;"/><line style="stroke:#A80036;stroke-width:1.0;" x1="36" x2="177" y1="383.5938" y2="383.5938"/><text fill="#000000" font-family="sans-serif" font-size="13" lengthAdjust="spacing" textLength="83" x="43" y="378.8516">GET /tollings</text><!--MD5=[82a6e1bedf19aa5699440dba07c270ee]
@startuml
actor       车道前端      as uTolling
participant TollingService          as sTolling
queue       Queue                   as RabbitMQ
participant RecognizingService      as sRecognizing
actor       识别前端  as uRecognizing

uTolling -> sTolling : GET /register
uTolling -> sTolling : GET /tollings
uTolling -> sTolling : GET /start?id=xxxx
sTolling -> RabbitMQ : start(xxxx)
RabbitMQ -> sRecognizing : start(xxxx)
uRecognizing -> sRecognizing : GET /unconfirmed
uRecognizing -> sRecognizing : GET /confirm?id=(xxxx)
sRecognizing -> RabbitMQ : recognizing_successes(xxxx)
RabbitMQ -> sTolling : recognizing_successes(xxxx)
uTolling -> sTolling : GET /tollings

@enduml

PlantUML version 1.2022.1(Wed Feb 02 02:19:58 CST 2022)
(GPL source distribution)
Java Runtime: OpenJDK Runtime Environment
JVM: OpenJDK 64-Bit Server VM
Default Encoding: UTF-8
Language: zh
Country: CN
--></g></svg>