<?xml version="1.0" encoding="UTF-8" standalone="no"?><svg xmlns="http://www.w3.org/2000/svg" xmlns:xlink="http://www.w3.org/1999/xlink" contentScriptType="application/ecmascript" contentStyleType="text/css" height="438px" preserveAspectRatio="none" style="width:796px;height:438px;background:#FFFFFF;" version="1.1" viewBox="0 0 796 438" width="796px" zoomAndPan="magnify"><defs><filter height="300%" id="f16fhdwi8z555z" width="300%" x="-1" y="-1"><feGaussianBlur result="blurOut" stdDeviation="2.0"/><feColorMatrix in="blurOut" result="blurOut2" type="matrix" values="0 0 0 0 0 0 0 0 0 0 0 0 0 0 0 0 0 0 .4 0"/><feOffset dx="4.0" dy="4.0" in="blurOut2" result="blurOut3"/><feBlend in="SourceGraphic" in2="blurOut3" mode="normal"/></filter></defs><g><g id="Approached"><rect fill="#FEFECE" filter="url(#f16fhdwi8z555z)" height="50.6211" rx="12.5" ry="12.5" style="stroke:#A80036;stroke-width:1.5;" width="104" x="68" y="39.7422"/><line style="stroke:#A80036;stroke-width:1.5;" x1="68" x2="172" y1="66.2305" y2="66.2305"/><text fill="#000000" font-family="sans-serif" font-size="14" lengthAdjust="spacing" textLength="84" x="78" y="58.2773">Approached</text><text fill="#000000" font-family="sans-serif" font-size="12" lengthAdjust="spacing" textLength="72" x="73" y="82.832">车辆进入车道</text></g><g id="Recognizing"><rect fill="#FEFECE" filter="url(#f16fhdwi8z555z)" height="50.6211" rx="12.5" ry="12.5" style="stroke:#A80036;stroke-width:1.5;" width="105" x="314.5" y="39.7422"/><line style="stroke:#A80036;stroke-width:1.5;" x1="314.5" x2="419.5" y1="66.2305" y2="66.2305"/><text fill="#000000" font-family="sans-serif" font-size="14" lengthAdjust="spacing" textLength="85" x="324.5" y="58.2773">Recognizing</text><text fill="#000000" font-family="sans-serif" font-size="12" lengthAdjust="spacing" textLength="84" x="319.5" y="82.832">车辆信息识别中</text></g><g id="Recognized"><rect fill="#FEFECE" filter="url(#f16fhdwi8z555z)" height="50.6211" rx="12.5" ry="12.5" style="stroke:#A80036;stroke-width:1.5;" width="104" x="599" y="39.7422"/><line style="stroke:#A80036;stroke-width:1.5;" x1="599" x2="703" y1="66.2305" y2="66.2305"/><text fill="#000000" font-family="sans-serif" font-size="14" lengthAdjust="spacing" textLength="80" x="611" y="58.2773">Recognized</text><text fill="#000000" font-family="sans-serif" font-size="12" lengthAdjust="spacing" textLength="84" x="604" y="82.832">车辆信息已识别</text></g><g id="Validating"><rect fill="#FEFECE" filter="url(#f16fhdwi8z555z)" height="50.6211" rx="12.5" ry="12.5" style="stroke:#A80036;stroke-width:1.5;" width="104" x="600" y="206.7422"/><line style="stroke:#A80036;stroke-width:1.5;" x1="600" x2="704" y1="233.2305" y2="233.2305"/><text fill="#000000" font-family="sans-serif" font-size="14" lengthAdjust="spacing" textLength="69" x="617.5" y="225.2773">Validating</text><text fill="#000000" font-family="sans-serif" font-size="12" lengthAdjust="spacing" textLength="84" x="605" y="249.832">车辆信息交验中</text></g><g id="Validated"><rect fill="#FEFECE" filter="url(#f16fhdwi8z555z)" height="50.6211" rx="12.5" ry="12.5" style="stroke:#A80036;stroke-width:1.5;" width="104" x="473" y="373.7422"/><line style="stroke:#A80036;stroke-width:1.5;" x1="473" x2="577" y1="400.2305" y2="400.2305"/><text fill="#000000" font-family="sans-serif" font-size="14" lengthAdjust="spacing" textLength="64" x="493" y="392.2773">Validated</text><text fill="#000000" font-family="sans-serif" font-size="12" lengthAdjust="spacing" textLength="84" x="478" y="416.832">车辆信息已交验</text></g><g id="Billing"><rect fill="#FEFECE" filter="url(#f16fhdwi8z555z)" height="50.6211" rx="12.5" ry="12.5" style="stroke:#A80036;stroke-width:1.5;" width="62" x="407" y="206.7422"/><line style="stroke:#A80036;stroke-width:1.5;" x1="407" x2="469" y1="233.2305" y2="233.2305"/><text fill="#000000" font-family="sans-serif" font-size="14" lengthAdjust="spacing" textLength="42" x="417" y="225.2773">Billing</text><text fill="#000000" font-family="sans-serif" font-size="12" lengthAdjust="spacing" textLength="36" x="412" y="249.832">计费中</text></g><g id="Billed"><rect fill="#FEFECE" filter="url(#f16fhdwi8z555z)" height="50.6211" rx="12.5" ry="12.5" style="stroke:#A80036;stroke-width:1.5;" width="68" x="198" y="206.7422"/><line style="stroke:#A80036;stroke-width:1.5;" x1="198" x2="266" y1="233.2305" y2="233.2305"/><text fill="#000000" font-family="sans-serif" font-size="14" lengthAdjust="spacing" textLength="37" x="213.5" y="225.2773">Billed</text><text fill="#000000" font-family="sans-serif" font-size="12" lengthAdjust="spacing" textLength="48" x="203" y="249.832">计费完成</text></g><g id="Paid"><rect fill="#FEFECE" filter="url(#f16fhdwi8z555z)" height="50.6211" rx="12.5" ry="12.5" style="stroke:#A80036;stroke-width:1.5;" width="68" x="198" y="373.7422"/><line style="stroke:#A80036;stroke-width:1.5;" x1="198" x2="266" y1="400.2305" y2="400.2305"/><text fill="#000000" font-family="sans-serif" font-size="14" lengthAdjust="spacing" textLength="29" x="217.5" y="392.2773">Paid</text><text fill="#000000" font-family="sans-serif" font-size="12" lengthAdjust="spacing" textLength="48" x="203" y="416.832">支付完成</text></g><g id="Left"><rect fill="#FEFECE" filter="url(#f16fhdwi8z555z)" height="50.6211" rx="12.5" ry="12.5" style="stroke:#A80036;stroke-width:1.5;" width="56" x="7" y="373.7422"/><line style="stroke:#A80036;stroke-width:1.5;" x1="7" x2="63" y1="400.2305" y2="400.2305"/><text fill="#000000" font-family="sans-serif" font-size="14" lengthAdjust="spacing" textLength="25" x="22.5" y="392.2773">Left</text><text fill="#000000" font-family="sans-serif" font-size="12" lengthAdjust="spacing" textLength="36" x="12" y="416.832">已驶离</text></g><ellipse cx="23" cy="65.2422" fill="#000000" filter="url(#f16fhdwi8z555z)" rx="10" ry="10" style="stroke:none;stroke-width:1.0;"/><ellipse cx="35" cy="232.2422" fill="none" filter="url(#f16fhdwi8z555z)" rx="10" ry="10" style="stroke:#000000;stroke-width:1.0;"/><ellipse cx="35.5" cy="232.7422" fill="#000000" rx="6" ry="6" style="stroke:none;stroke-width:1.0;"/><!--MD5=[dfb1851f67e38ae688a2007677f74a8d]
link *start to Approached--><path d="M33.23,65.2422 C43.04,65.2422 52.86,65.2422 62.67,65.2422 " fill="none" id="*start-to-Approached" style="stroke:#A80036;stroke-width:1.0;"/><polygon fill="#A80036" points="67.8,65.2422,58.8,61.2422,62.8,65.2422,58.8,69.2422,67.8,65.2422" style="stroke:#A80036;stroke-width:1.0;"/><!--MD5=[03285c7038b3fc9c5054f97332b883e6]
link Approached to Recognizing--><path d="M150.43,90.8522 C167.56,103.5822 190.03,117.6322 212.75,124.2422 C238.78,131.8222 247.71,131.7922 273.75,124.2422 C294.78,118.1422 315.63,105.7322 332.25,93.8522 " fill="none" id="Approached-to-Recognizing" style="stroke:#A80036;stroke-width:1.0;"/><polygon fill="#A80036" points="336.39,90.8522,326.7548,92.8925,332.3408,93.7854,331.4479,99.3713,336.39,90.8522" style="stroke:#A80036;stroke-width:1.0;"/><text fill="#000000" font-family="sans-serif" font-size="13" lengthAdjust="spacing" textLength="29" x="228.75" y="81.8105">start</text><path d="M217.75,90.5527 L217.75,115.5527 L264.75,115.5527 L264.75,100.5527 L254.75,90.5527 L217.75,90.5527 " fill="#FBFB77" filter="url(#f16fhdwi8z555z)" style="stroke:#A80036;stroke-width:1.0;"/><path d="M254.75,90.5527 L254.75,100.5527 L264.75,100.5527 L254.75,90.5527 " fill="#FBFB77" style="stroke:#A80036;stroke-width:1.0;"/><text fill="#000000" font-family="sans-serif" font-size="13" lengthAdjust="spacing" textLength="26" x="223.75" y="108.1211">开始</text><!--MD5=[21af83a5ae1a5392c05767bfe1a71835]
reverse link Approached to Recognizing--><path d="M177.3,65.2422 C218.59,65.2422 273.9,65.2422 314.14,65.2422 " fill="none" id="Approached-backto-Recognizing" style="stroke:#A80036;stroke-width:1.0;"/><polygon fill="#A80036" points="172.08,65.2422,181.08,69.2422,177.08,65.2422,181.08,61.2422,172.08,65.2422" style="stroke:#A80036;stroke-width:1.0;"/><text fill="#000000" font-family="sans-serif" font-size="13" lengthAdjust="spacing" textLength="106" x="190.25" y="19.8105">recognition_fails</text><path d="M204.75,28.5527 L204.75,53.5527 L277.75,53.5527 L277.75,38.5527 L267.75,28.5527 L204.75,28.5527 " fill="#FBFB77" filter="url(#f16fhdwi8z555z)" style="stroke:#A80036;stroke-width:1.0;"/><path d="M267.75,28.5527 L267.75,38.5527 L277.75,38.5527 L267.75,28.5527 " fill="#FBFB77" style="stroke:#A80036;stroke-width:1.0;"/><text fill="#000000" font-family="sans-serif" font-size="13" lengthAdjust="spacing" textLength="52" x="210.75" y="46.1211">识别失败</text><!--MD5=[e146b91fe136c44e9db9bf0cd8dc043a]
link Recognizing to Recognized--><path d="M419.75,65.2422 C469.07,65.2422 542.54,65.2422 593.37,65.2422 " fill="none" id="Recognizing-to-Recognized" style="stroke:#A80036;stroke-width:1.0;"/><polygon fill="#A80036" points="598.53,65.2422,589.53,61.2422,593.53,65.2422,589.53,69.2422,598.53,65.2422" style="stroke:#A80036;stroke-width:1.0;"/><text fill="#000000" font-family="sans-serif" font-size="13" lengthAdjust="spacing" textLength="143" x="437.75" y="19.8105">recognition_successes</text><path d="M470.75,28.5527 L470.75,53.5527 L543.75,53.5527 L543.75,38.5527 L533.75,28.5527 L470.75,28.5527 " fill="#FBFB77" filter="url(#f16fhdwi8z555z)" style="stroke:#A80036;stroke-width:1.0;"/><path d="M533.75,28.5527 L533.75,38.5527 L543.75,38.5527 L533.75,28.5527 " fill="#FBFB77" style="stroke:#A80036;stroke-width:1.0;"/><text fill="#000000" font-family="sans-serif" font-size="13" lengthAdjust="spacing" textLength="52" x="476.75" y="46.1211">识别成功</text><!--MD5=[f83a4b92ea7d4856aa9807a0c487f354]
link Recognized to Validating--><path d="M602.22,90.8422 C591.31,98.8122 581.16,108.7522 575,120.7422 C563.63,142.8822 563.56,154.6322 575,176.7422 C580.4,187.1822 588.82,196.0422 598.15,203.4022 " fill="none" id="Recognized-to-Validating" style="stroke:#A80036;stroke-width:1.0;"/><polygon fill="#A80036" points="602.19,206.4622,597.4245,197.843,598.202,203.4462,592.5989,204.2238,602.19,206.4622" style="stroke:#A80036;stroke-width:1.0;"/><text fill="#000000" font-family="sans-serif" font-size="13" lengthAdjust="spacing" textLength="105" x="576" y="134.3105">validation_starts</text><path d="M590,143.0527 L590,168.0527 L663,168.0527 L663,153.0527 L653,143.0527 L590,143.0527 " fill="#FBFB77" filter="url(#f16fhdwi8z555z)" style="stroke:#A80036;stroke-width:1.0;"/><path d="M653,143.0527 L653,153.0527 L663,153.0527 L653,143.0527 " fill="#FBFB77" style="stroke:#A80036;stroke-width:1.0;"/><text fill="#000000" font-family="sans-serif" font-size="13" lengthAdjust="spacing" textLength="52" x="596" y="160.6211">交验开始</text><!--MD5=[8928f0c5651bc80e5cb36771bb804956]
reverse link Recognized to Validating--><path d="M673.8,95.0922 C678.8,102.9722 683.38,111.8222 686,120.7422 C693.01,144.6222 692.85,152.8122 686,176.7422 C682.99,187.2522 677.3,197.7022 671.43,206.5922 " fill="none" id="Recognized-backto-Validating" style="stroke:#A80036;stroke-width:1.0;"/><polygon fill="#A80036" points="670.99,90.8122,672.5924,100.5298,673.737,94.99,679.2769,96.1346,670.99,90.8122" style="stroke:#A80036;stroke-width:1.0;"/><text fill="#000000" font-family="sans-serif" font-size="13" lengthAdjust="spacing" textLength="96" x="692" y="134.3105">validation_fails</text><path d="M701.5,143.0527 L701.5,168.0527 L774.5,168.0527 L774.5,153.0527 L764.5,143.0527 L701.5,143.0527 " fill="#FBFB77" filter="url(#f16fhdwi8z555z)" style="stroke:#A80036;stroke-width:1.0;"/><path d="M764.5,143.0527 L764.5,153.0527 L774.5,153.0527 L764.5,143.0527 " fill="#FBFB77" style="stroke:#A80036;stroke-width:1.0;"/><text fill="#000000" font-family="sans-serif" font-size="13" lengthAdjust="spacing" textLength="52" x="707.5" y="160.6211">交验失败</text><!--MD5=[1506961a4608e5ebc03d247baf6a6cfa]
link Validating to Validated--><path d="M645.93,257.7822 C639.07,281.7022 626.03,318.1222 605,343.7422 C596.62,353.9422 585.85,363.0222 574.94,370.7022 " fill="none" id="Validating-to-Validated" style="stroke:#A80036;stroke-width:1.0;"/><polygon fill="#A80036" points="570.6,373.6822,580.2825,371.8796,574.7202,370.8495,575.7503,365.2873,570.6,373.6822" style="stroke:#A80036;stroke-width:1.0;"/><text fill="#000000" font-family="sans-serif" font-size="13" lengthAdjust="spacing" textLength="133" x="636" y="301.3105">validation_successes</text><path d="M664,310.0527 L664,335.0527 L737,335.0527 L737,320.0527 L727,310.0527 L664,310.0527 " fill="#FBFB77" filter="url(#f16fhdwi8z555z)" style="stroke:#A80036;stroke-width:1.0;"/><path d="M727,310.0527 L727,320.0527 L737,320.0527 L727,310.0527 " fill="#FBFB77" style="stroke:#A80036;stroke-width:1.0;"/><text fill="#000000" font-family="sans-serif" font-size="13" lengthAdjust="spacing" textLength="52" x="670" y="327.6211">交验成功</text><!--MD5=[b20b28db679dc39029f695c4a315cd68]
reverse link Billing to Validated--><path d="M409.49,262.1422 C403.57,269.8622 398.17,278.6122 395,287.7422 C386.84,311.2522 381.22,323.0222 395,343.7422 C412.28,369.7222 444.59,383.3422 472.68,390.4722 " fill="none" id="Billing-backto-Validated" style="stroke:#A80036;stroke-width:1.0;"/><polygon fill="#A80036" points="412.82,257.9622,404.0783,262.499,409.7,261.8693,410.3297,267.491,412.82,257.9622" style="stroke:#A80036;stroke-width:1.0;"/><text fill="#000000" font-family="sans-serif" font-size="13" lengthAdjust="spacing" textLength="83" x="397" y="301.3105">billing_starts</text><path d="M400,310.0527 L400,335.0527 L473,335.0527 L473,320.0527 L463,310.0527 L400,310.0527 " fill="#FBFB77" filter="url(#f16fhdwi8z555z)" style="stroke:#A80036;stroke-width:1.0;"/><path d="M463,310.0527 L463,320.0527 L473,320.0527 L463,310.0527 " fill="#FBFB77" style="stroke:#A80036;stroke-width:1.0;"/><text fill="#000000" font-family="sans-serif" font-size="13" lengthAdjust="spacing" textLength="52" x="406" y="327.6211">开始支付</text><!--MD5=[77b9a4b0a9207e0feaec598bd41f7034]
link Billing to Validated--><path d="M463.38,257.9922 C471.42,266.8122 479.81,277.1922 486,287.7422 C500.93,313.1922 511.46,345.2722 517.79,368.3022 " fill="none" id="Billing-to-Validated" style="stroke:#A80036;stroke-width:1.0;"/><polygon fill="#A80036" points="519.15,373.3622,520.6727,363.6318,517.8501,368.5341,512.9478,365.7115,519.15,373.3622" style="stroke:#A80036;stroke-width:1.0;"/><text fill="#000000" font-family="sans-serif" font-size="13" lengthAdjust="spacing" textLength="74" x="516.5" y="301.3105">billing_fails</text><path d="M515,310.0527 L515,335.0527 L588,335.0527 L588,320.0527 L578,310.0527 L515,310.0527 " fill="#FBFB77" filter="url(#f16fhdwi8z555z)" style="stroke:#A80036;stroke-width:1.0;"/><path d="M578,310.0527 L578,320.0527 L588,320.0527 L578,310.0527 " fill="#FBFB77" style="stroke:#A80036;stroke-width:1.0;"/><text fill="#000000" font-family="sans-serif" font-size="13" lengthAdjust="spacing" textLength="52" x="521" y="327.6211">支付失败</text><!--MD5=[ab612eb0136e83a581348c0ddbe998ea]
reverse link Billed to Billing--><path d="M271.2,232.2422 C310.65,232.2422 370.71,232.2422 406.97,232.2422 " fill="none" id="Billed-backto-Billing" style="stroke:#A80036;stroke-width:1.0;"/><polygon fill="#A80036" points="266.02,232.2422,275.02,236.2422,271.02,232.2422,275.02,228.2422,266.02,232.2422" style="stroke:#A80036;stroke-width:1.0;"/><text fill="#000000" font-family="sans-serif" font-size="13" lengthAdjust="spacing" textLength="104" x="284.5" y="186.8105">billing_sucesses</text><path d="M298,195.5527 L298,220.5527 L371,220.5527 L371,205.5527 L361,195.5527 L298,195.5527 " fill="#FBFB77" filter="url(#f16fhdwi8z555z)" style="stroke:#A80036;stroke-width:1.0;"/><path d="M361,195.5527 L361,205.5527 L371,205.5527 L361,195.5527 " fill="#FBFB77" style="stroke:#A80036;stroke-width:1.0;"/><text fill="#000000" font-family="sans-serif" font-size="13" lengthAdjust="spacing" textLength="52" x="304" y="213.1211">支付成功</text><!--MD5=[4bd57cb47fb4e3d21cb6ff79eaa98f7a]
link Billed to Paid--><path d="M232,257.9422 C232,287.4322 232,336.7222 232,368.3422 " fill="none" id="Billed-to-Paid" style="stroke:#A80036;stroke-width:1.0;"/><polygon fill="#A80036" points="232,373.6422,236,364.6422,232,368.6422,228,364.6422,232,373.6422" style="stroke:#A80036;stroke-width:1.0;"/><text fill="#000000" font-family="sans-serif" font-size="13" lengthAdjust="spacing" textLength="22" x="264.5" y="301.3105">pay</text><path d="M237,310.0527 L237,335.0527 L310,335.0527 L310,320.0527 L300,310.0527 L237,310.0527 " fill="#FBFB77" filter="url(#f16fhdwi8z555z)" style="stroke:#A80036;stroke-width:1.0;"/><path d="M300,310.0527 L300,320.0527 L310,320.0527 L300,310.0527 " fill="#FBFB77" style="stroke:#A80036;stroke-width:1.0;"/><text fill="#000000" font-family="sans-serif" font-size="13" lengthAdjust="spacing" textLength="52" x="243" y="327.6211">支付成功</text><!--MD5=[9030744e24e013d89cfc35301906259d]
reverse link Left to Paid--><path d="M68.39,399.2422 C104.43,399.2422 161.54,399.2422 197.87,399.2422 " fill="none" id="Left-backto-Paid" style="stroke:#A80036;stroke-width:1.0;"/><polygon fill="#A80036" points="63.23,399.2422,72.23,403.2422,68.23,399.2422,72.23,395.2422,63.23,399.2422" style="stroke:#A80036;stroke-width:1.0;"/><text fill="#000000" font-family="sans-serif" font-size="13" lengthAdjust="spacing" textLength="98" x="81.5" y="353.8105">leaving_detects</text><path d="M105,362.5527 L105,387.5527 L152,387.5527 L152,372.5527 L142,362.5527 L105,362.5527 " fill="#FBFB77" filter="url(#f16fhdwi8z555z)" style="stroke:#A80036;stroke-width:1.0;"/><path d="M142,362.5527 L142,372.5527 L152,372.5527 L142,362.5527 " fill="#FBFB77" style="stroke:#A80036;stroke-width:1.0;"/><text fill="#000000" font-family="sans-serif" font-size="13" lengthAdjust="spacing" textLength="26" x="111" y="380.1211">驶离</text><!--MD5=[13b1589be59eeda3a2b4efbae5f50f73]
reverse link *end to Left--><path d="M35,247.7622 C35,276.0122 35,338.6822 35,373.5722 " fill="none" id="*end-backto-Left" style="stroke:#A80036;stroke-width:1.0;"/><polygon fill="#A80036" points="35,242.5822,31,251.5822,35,247.5822,39,251.5822,35,242.5822" style="stroke:#A80036;stroke-width:1.0;"/><!--MD5=[66ccbd650b96b2693a5922470709405b]
@startuml
Approached: 车辆进入车道
Recognizing: 车辆信息识别中
Recognized: 车辆信息已识别
Validating: 车辆信息交验中
Validated: 车辆信息已交验
Billing: 计费中
Billed: 计费完成
Paid: 支付完成
Left: 已驶离

[*] -right-> Approached
Approached -right-> Recognizing: start
note on link
开始
end note
Recognizing -left-> Approached: recognition_fails
note on link
识别失败
end note
Recognizing -right-> Recognized: recognition_successes
note on link
识别成功
end note
Recognized -down-> Validating: validation_starts
note on link
交验开始
end note
Validating -down-> Validated: validation_successes
note on link
交验成功
end note
Validating -up-> Recognized: validation_fails
note on link
交验失败
end note
Validated -up-> Billing: billing_starts
note on link
开始支付
end note
Billing -left-> Billed : billing_sucesses
note on link
支付成功
end note
Billing -down-> Validated : billing_fails
note on link
支付失败
end note
Billed -down-> Paid : pay
note on link
支付成功
end note
Paid -left-> Left : leaving_detects
note on link
驶离
end note
Left -up-> [*]




@enduml

PlantUML version 1.2022.1(Wed Feb 02 02:19:58 CST 2022)
(GPL source distribution)
Java Runtime: OpenJDK Runtime Environment
JVM: OpenJDK 64-Bit Server VM
Default Encoding: UTF-8
Language: zh
Country: CN
--></g></svg>